<?xml version="1.0" encoding="UTF-8"?>
<svg version="1.1" xmlns="http://www.w3.org/2000/svg" width="910" height="416">
<path d="M0 0 C300.3 0 600.6 0 910 0 C910 137.28 910 274.56 910 416 C609.7 416 309.4 416 0 416 C0 278.72 0 141.44 0 0 Z " fill="#131215" transform="translate(0,0)"/>
<path d="M0 0 C300.3 0 600.6 0 910 0 C910 7.26 910 14.52 910 22 C609.7 22 309.4 22 0 22 C0 14.74 0 7.48 0 0 Z " fill="#121214" transform="translate(0,394)"/>
<path d="M0 0 C5.28 0 10.56 0 16 0 C16 1.32 16 2.64 16 4 C17.32 4 18.64 4 20 4 C20 5.32 20 6.64 20 8 C21.32 8 22.64 8 24 8 C24 8.99 24 9.98 24 11 C24.99 11 25.98 11 27 11 C27 8.69 27 6.38 27 4 C36.57 4 46.14 4 56 4 C56 6.64 56 9.28 56 12 C54.35 12 52.7 12 51 12 C51 26.19 51 40.38 51 55 C47.04 55 43.08 55 39 55 C39 45.76 39 36.52 39 27 C40.32 27 41.64 27 43 27 C43 24.69 43 22.38 43 20 C41.68 20 40.36 20 39 20 C39 17.36 39 14.72 39 12 C35.37 12 31.74 12 28 12 C28 15.96 28 19.92 28 24 C26.68 24 25.36 24 24 24 C24 25.32 24 26.64 24 28 C21.36 28 18.72 28 16 28 C16 28.99 16 29.98 16 31 C12.04 31 8.08 31 4 31 C4 39.91 4 48.82 4 58 C3.01 58 2.02 58 1 58 C1 56.68 1 55.36 1 54 C-0.32 54 -1.64 54 -3 54 C-3 51.36 -3 48.72 -3 46 C-4.32 46 -5.64 46 -7 46 C-7 43.69 -7 41.38 -7 39 C-5.68 39 -4.36 39 -3 39 C-3 35.04 -3 31.08 -3 27 C-5.64 27 -8.28 27 -11 27 C-11 28.32 -11 29.64 -11 31 C-12.32 31 -13.64 31 -15 31 C-15 38.92 -15 46.84 -15 55 C-17.64 55 -20.28 55 -23 55 C-23 47.08 -23 39.16 -23 31 C-24.32 31 -25.64 31 -27 31 C-27 29.68 -27 28.36 -27 27 C-27.99 27 -28.98 27 -30 27 C-30 26.01 -30 25.02 -30 24 C-31.32 24 -32.64 24 -34 24 C-34 25.32 -34 26.64 -34 28 C-36.64 28 -39.28 28 -42 28 C-42 28.99 -42 29.98 -42 31 C-43.32 31 -44.64 31 -46 31 C-46 32.32 -46 33.64 -46 35 C-44.68 35 -43.36 35 -42 35 C-42 36.32 -42 37.64 -42 39 C-40.68 39 -39.36 39 -38 39 C-38 40.32 -38 41.64 -38 43 C-35.69 43 -33.38 43 -31 43 C-31 44.32 -31 45.64 -31 47 C-29.68 47 -28.36 47 -27 47 C-27 48.32 -27 49.64 -27 51 C-31.95 51 -36.9 51 -42 51 C-42 49.68 -42 48.36 -42 47 C-43.32 47 -44.64 47 -46 47 C-46 45.68 -46 44.36 -46 43 C-47.32 43 -48.64 43 -50 43 C-50 42.01 -50 41.02 -50 40 C-50.99 40 -51.98 40 -53 40 C-53 44.95 -53 49.9 -53 55 C-55.97 55 -58.94 55 -62 55 C-62 40.81 -62 26.62 -62 12 C-62.99 12 -63.98 12 -65 12 C-65 14.64 -65 17.28 -65 20 C-68.96 20 -72.92 20 -77 20 C-77 18.68 -77 17.36 -77 16 C-80.63 16 -84.26 16 -88 16 C-88 17.32 -88 18.64 -88 20 C-89.32 20 -90.64 20 -92 20 C-92 21.32 -92 22.64 -92 24 C-93.32 24 -94.64 24 -96 24 C-96 28.95 -96 33.9 -96 39 C-94.68 39 -93.36 39 -92 39 C-92 40.32 -92 41.64 -92 43 C-87.05 43 -82.1 43 -77 43 C-77 41.68 -77 40.36 -77 39 C-73.04 39 -69.08 39 -65 39 C-65 42.96 -65 46.92 -65 51 C-67.64 51 -70.28 51 -73 51 C-73 52.32 -73 53.64 -73 55 C-79.27 55 -85.54 55 -92 55 C-92 53.35 -92 51.7 -92 50 C-94.64 50 -97.28 50 -100 50 C-100 48.68 -100 47.36 -100 46 C-101.32 46 -102.64 46 -104 46 C-104 34.78 -104 23.56 -104 12 C-101.36 12 -98.72 12 -96 12 C-96 10.68 -96 9.36 -96 8 C-94.68 8 -93.36 8 -92 8 C-92 6.68 -92 5.36 -92 4 C-85.73 4 -79.46 4 -73 4 C-73 5.32 -73 6.64 -73 8 C-71.68 8 -70.36 8 -69 8 C-69 8.99 -69 9.98 -69 11 C-68.01 11 -67.02 11 -66 11 C-66 10.01 -66 9.02 -66 8 C-63.36 8 -60.72 8 -58 8 C-58 6.68 -58 5.36 -58 4 C-47.77 4 -37.54 4 -27 4 C-27 7.96 -27 11.92 -27 16 C-25.68 16 -24.36 16 -23 16 C-23 17.32 -23 18.64 -23 20 C-21.68 20 -20.36 20 -19 20 C-19 21.32 -19 22.64 -19 24 C-17.68 24 -16.36 24 -15 24 C-15 21.36 -15 18.72 -15 16 C-13.68 16 -12.36 16 -11 16 C-11 14.68 -11 13.36 -11 12 C-9.68 12 -8.36 12 -7 12 C-7 9.36 -7 6.72 -7 4 C-4.69 4 -2.38 4 0 4 C0 2.68 0 1.36 0 0 Z " fill="#F1F1F1" transform="translate(426,163)"/>
<path d="M0 0 C3.3 0 6.6 0 10 0 C10 3.3 10 6.6 10 10 C11.65 10 13.3 10 15 10 C15 8.35 15 6.7 15 5 C16.98 5 18.96 5 21 5 C21 6.65 21 8.3 21 10 C22.65 10 24.3 10 26 10 C26 13.63 26 17.26 26 21 C27.98 21 29.96 21 32 21 C32 19.35 32 17.7 32 16 C33.65 16 35.3 16 37 16 C37 19.3 37 22.6 37 26 C38.65 26 40.3 26 42 26 C42 31.28 42 36.56 42 42 C40.35 42 38.7 42 37 42 C37 40.35 37 38.7 37 37 C33.7 37 30.4 37 27 37 C27 38.65 27 40.3 27 42 C26 43 26 43 23.4375 43.0625 C22.633125 43.041875 21.82875 43.02125 21 43 C21 41.02 21 39.04 21 37 C19.02 37 17.04 37 15 37 C15 38.65 15 40.3 15 42 C13.35 42 11.7 42 10 42 C10 45.63 10 49.26 10 53 C15.28 53 20.56 53 26 53 C26 56.3 26 59.6 26 63 C20.72 63 15.44 63 10 63 C10 61.35 10 59.7 10 58 C8.35 58 6.7 58 5 58 C5 59.98 5 61.96 5 64 C6.65 64 8.3 64 10 64 C10 65.32 10 66.64 10 68 C18.91 68 27.82 68 37 68 C37 64.7 37 61.4 37 58 C38.65 58 40.3 58 42 58 C42 54.7 42 51.4 42 48 C43.98 48 45.96 48 48 48 C48 46.35 48 44.7 48 43 C49.65 43 51.3 43 53 43 C53 49.93 53 56.86 53 64 C51.35 64 49.7 64 48 64 C48 65.65 48 67.3 48 69 C44.37 69 40.74 69 37 69 C37 70.65 37 72.3 37 74 C28.09 74 19.18 74 10 74 C10 72.35 10 70.7 10 69 C6.37 69 2.74 69 -1 69 C-1 70.65 -1 72.3 -1 74 C-2.65 74 -4.3 74 -6 74 C-6 75.98 -6 77.96 -6 80 C-4.35 80 -2.7 80 -1 80 C-1 81.65 -1 83.3 -1 85 C2.63 85 6.26 85 10 85 C10 88.63 10 92.26 10 96 C11.65 96 13.3 96 15 96 C15 97.65 15 99.3 15 101 C13.35 101 11.7 101 10 101 C10 102.65 10 104.3 10 106 C3.07 106 -3.86 106 -11 106 C-11 102.7 -11 99.4 -11 96 C-12.98 96 -14.96 96 -17 96 C-17 94.02 -17 92.04 -17 90 C-15.02 90 -13.04 90 -11 90 C-11 81.42 -11 72.84 -11 64 C-12.98 64 -14.96 64 -17 64 C-17 62.35 -17 60.7 -17 59 C-18.65 59 -20.3 59 -22 59 C-22 55.04 -22 51.08 -22 47 C-20.35 47 -18.7 47 -17 47 C-17 45.35 -17 43.7 -17 42 C-15.02 42 -13.04 42 -11 42 C-11 45.63 -11 49.26 -11 53 C-5.72 53 -0.44 53 5 53 C5 49.7 5 46.4 5 43 C3.35 43 1.7 43 0 43 C-0.33 42.67 -0.66 42.34 -1 42 C-1 40.35 -1 38.7 -1 37 C-6.28 37 -11.56 37 -17 37 C-17 35.02 -17 33.04 -17 31 C-18.65 31 -20.3 31 -22 31 C-22 29.35 -22 27.7 -22 26 C-25.63 26 -29.26 26 -33 26 C-33 22.7 -33 19.4 -33 16 C-29.37 16 -25.74 16 -22 16 C-22 14.02 -22 12.04 -22 10 C-18.37 10 -14.74 10 -11 10 C-11 8.35 -11 6.7 -11 5 C-7.7 5 -4.4 5 -1 5 C-1 6.65 -1 8.3 -1 10 C0.98 10 2.96 10 5 10 C5 8.02 5 6.04 5 4 C3.35 4 1.7 4 0 4 C0 2.68 0 1.36 0 0 Z " fill="#684A3F" transform="translate(273,74)"/>
<path d="M0 0 C2.97 0 5.94 0 9 0 C9 1.32 9 2.64 9 4 C7.68 4 6.36 4 5 4 C5 5.65 5 7.3 5 9 C6.32 9 7.64 9 9 9 C9 12.3 9 15.6 9 19 C10.65 19 12.3 19 14 19 C14 17.35 14 15.7 14 14 C15.65 14 17.3 14 19 14 C19 18.62 19 23.24 19 28 C23.29 28 27.58 28 32 28 C32 29.32 32 30.64 32 32 C30.68 32 29.36 32 28 32 C28 33.65 28 35.3 28 37 C26.68 37 25.36 37 24 37 C24 38.65 24 40.3 24 42 C25.32 42 26.64 42 28 42 C28 43.32 28 44.64 28 46 C29.65 46 31.3 46 33 46 C33 47.65 33 49.3 33 51 C31.35 51 29.7 51 28 51 C28 52.65 28 54.3 28 56 C26.68 56 25.36 56 24 56 C24 54.35 24 52.7 24 51 C22.35 51 20.7 51 19 51 C19 49.68 19 48.36 19 47 C17.35 47 15.7 47 14 47 C14 43.7 14 40.4 14 37 C12.35 37 10.7 37 9 37 C9 42.94 9 48.88 9 55 C7.02 55.495 7.02 55.495 5 56 C4.67 58.97 4.34 61.94 4 65 C2.68 65 1.36 65 0 65 C0 63.35 0 61.7 0 60 C-4.62 60 -9.24 60 -14 60 C-14 61.98 -14 63.96 -14 66 C-9.71 66 -5.42 66 -1 66 C-1 68.64 -1 71.28 -1 74 C-3.64 74 -6.28 74 -9 74 C-9 72.68 -9 71.36 -9 70 C-10.65 70 -12.3 70 -14 70 C-14 71.65 -14 73.3 -14 75 C-12.35 75 -10.7 75 -9 75 C-9 76.65 -9 78.3 -9 80 C-7.68 80 -6.36 80 -5 80 C-5 84.29 -5 88.58 -5 93 C-9.62 93 -14.24 93 -19 93 C-19 85.41 -19 77.82 -19 70 C-20.32 70 -21.64 70 -23 70 C-23 68.35 -23 66.7 -23 65 C-24.98 65 -26.96 65 -29 65 C-29 63.68 -29 62.36 -29 61 C-30.32 61 -31.64 61 -33 61 C-33 57.37 -33 53.74 -33 50 C-31.68 50 -30.36 50 -29 50 C-29 47.69 -29 45.38 -29 43 C-29.99 43 -30.98 43 -32 43 C-32 44.32 -32 45.64 -32 47 C-35.3 47 -38.6 47 -42 47 C-42 48.32 -42 49.64 -42 51 C-43.65 51 -45.3 51 -47 51 C-47 49.68 -47 48.36 -47 47 C-48.65 47 -50.3 47 -52 47 C-52 45.35 -52 43.7 -52 42 C-48.7 42 -45.4 42 -42 42 C-42 40.35 -42 38.7 -42 37 C-40.35 37 -38.7 37 -37 37 C-37 35.35 -37 33.7 -37 32 C-38.65 32 -40.3 32 -42 32 C-42 29.03 -42 26.06 -42 23 C-40.35 23 -38.7 23 -37 23 C-37 21.35 -37 19.7 -37 18 C-38.65 18 -40.3 18 -42 18 C-42 15.03 -42 12.06 -42 9 C-40.68 9 -39.36 9 -38 9 C-38 10.65 -38 12.3 -38 14 C-34.7 14 -31.4 14 -28 14 C-28 12.35 -28 10.7 -28 9 C-26.68 9 -25.36 9 -24 9 C-24 12.3 -24 15.6 -24 19 C-22.35 19 -20.7 19 -19 19 C-19 17.35 -19 15.7 -19 14 C-17.35 14 -15.7 14 -14 14 C-14 12.35 -14 10.7 -14 9 C-15.65 9 -17.3 9 -19 9 C-19 7.35 -19 5.7 -19 4 C-15.7 4 -12.4 4 -9 4 C-9 5.65 -9 7.3 -9 9 C-6.03 9 -3.06 9 0 9 C0 6.03 0 3.06 0 0 Z " fill="#38479E" transform="translate(693,187)"/>
<path d="M0 0 C6.27 0 12.54 0 19 0 C19 1.65 19 3.3 19 5 C20.32 5 21.64 5 23 5 C23 6.65 23 8.3 23 10 C24.65 10 26.3 10 28 10 C28 11.32 28 12.64 28 14 C29.65 14 31.3 14 33 14 C33 23.24 33 32.48 33 42 C31.35 42 29.7 42 28 42 C28 43.65 28 45.3 28 47 C26.35 47 24.7 47 23 47 C23 48.32 23 49.64 23 51 C20.03 51 17.06 51 14 51 C14 49.68 14 48.36 14 47 C9.38 47 4.76 47 0 47 C0 48.32 0 49.64 0 51 C-1.32 51 -2.64 51 -4 51 C-4 52.65 -4 54.3 -4 56 C-2.68 56 -1.36 56 0 56 C0 57.32 0 58.64 0 60 C3.3 60 6.6 60 10 60 C10 62.97 10 65.94 10 69 C11.65 69 13.3 69 15 69 C15 70.65 15 72.3 15 74 C5.43 74 -4.14 74 -14 74 C-14 72.68 -14 71.36 -14 70 C-12.35 70 -10.7 70 -9 70 C-9 62.41 -9 54.82 -9 47 C-11.97 47 -14.94 47 -18 47 C-18 43.7 -18 40.4 -18 37 C-16.68 37 -15.36 37 -14 37 C-14 32.71 -14 28.42 -14 24 C-15.32 24 -16.64 24 -18 24 C-18 21.03 -18 18.06 -18 15 C-16.68 15 -15.36 15 -14 15 C-14 13.35 -14 11.7 -14 10 C-12.35 10 -10.7 10 -9 10 C-9 8.35 -9 6.7 -9 5 C-6.03 5 -3.06 5 0 5 C0 3.35 0 1.7 0 0 Z " fill="#33211D" transform="translate(352,292)"/>
<path d="M0 0 C5.28 0 10.56 0 16 0 C16 1.98 16 3.96 16 6 C21.28 6 26.56 6 32 6 C32 9.63 32 13.26 32 17 C33.65 17 35.3 17 37 17 C37 18.65 37 20.3 37 22 C44.26 22 51.52 22 59 22 C59 25.3 59 28.6 59 32 C50.09 32 41.18 32 32 32 C32 42.89 32 53.78 32 65 C30.35 65 28.7 65 27 65 C27 61.04 27 57.08 27 53 C25.35 53 23.7 53 22 53 C22 51.35 22 49.7 22 48 C18.37 48 14.74 48 11 48 C11 46.35 11 44.7 11 43 C9.02 43 7.04 43 5 43 C5 44.98 5 46.96 5 49 C3.35 49 1.7 49 0 49 C0 50.65 0 52.3 0 54 C-3.63 54 -7.26 54 -11 54 C-11 52.02 -11 50.04 -11 48 C-12.65 48 -14.3 48 -16 48 C-16 46.68 -16 45.36 -16 44 C-14.35 44 -12.7 44 -11 44 C-11 38.39 -11 32.78 -11 27 C-12.65 27 -14.3 27 -16 27 C-16 25.35 -16 23.7 -16 22 C-14.35 22 -12.7 22 -11 22 C-11 18.37 -11 14.74 -11 11 C-9.35 11 -7.7 11 -6 11 C-6 9.35 -6 7.7 -6 6 C-4.02 6 -2.04 6 0 6 C0 4.02 0 2.04 0 0 Z " fill="#8626A0" transform="translate(221,220)"/>
<path d="M0 0 C4.29 0 8.58 0 13 0 C13 2.31 13 4.62 13 7 C23.56 7 34.12 7 45 7 C45 8.98 45 10.96 45 13 C47.31 13 49.62 13 52 13 C52 17.29 52 21.58 52 26 C49.69 26 47.38 26 45 26 C45 28.31 45 30.62 45 33 C43.02 33 41.04 33 39 33 C39 34.98 39 36.96 39 39 C36.69 39 34.38 39 32 39 C32 40.98 32 42.96 32 45 C30.02 45 28.04 45 26 45 C26 47.64 26 50.28 26 53 C21.71 53 17.42 53 13 53 C13 50.69 13 48.38 13 46 C10.69 46 8.38 46 6 46 C6 43.69 6 41.38 6 39 C4.02 39 2.04 39 0 39 C0 37.02 0 35.04 0 33 C-2.31 33 -4.62 33 -7 33 C-7 30.69 -7 28.38 -7 26 C-8.98 26 -10.96 26 -13 26 C-13 21.71 -13 17.42 -13 13 C-11.02 13 -9.04 13 -7 13 C-7 11.02 -7 9.04 -7 7 C-4.69 7 -2.38 7 0 7 C0 4.69 0 2.38 0 0 Z " fill="#EC3C32" transform="translate(495,164)"/>
<path d="M0 0 C1.32 0 2.64 0 4 0 C4 1.32 4 2.64 4 4 C5.32 4 6.64 4 8 4 C8 11.59 8 19.18 8 27 C6.68 27 5.36 27 4 27 C4 33.6 4 40.2 4 47 C0.04 47 -3.92 47 -8 47 C-8 43.37 -8 39.74 -8 36 C-9.32 36 -10.64 36 -12 36 C-12 33.36 -12 30.72 -12 28 C-12.99 28 -13.98 28 -15 28 C-15 34.27 -15 40.54 -15 47 C-14.01 47 -13.02 47 -12 47 C-12 48.32 -12 49.64 -12 51 C-14.31 51 -16.62 51 -19 51 C-19 49.68 -19 48.36 -19 47 C-21.64 47 -24.28 47 -27 47 C-27 45.68 -27 44.36 -27 43 C-28.32 43 -29.64 43 -31 43 C-31 45.64 -31 48.28 -31 51 C-38.59 51 -46.18 51 -54 51 C-54 49.68 -54 48.36 -54 47 C-55.32 47 -56.64 47 -58 47 C-58 32.81 -58 18.62 -58 4 C-55.36 4 -52.72 4 -50 4 C-50 5.65 -50 7.3 -50 9 C-49.01 9 -48.02 9 -47 9 C-47 12.3 -47 15.6 -47 19 C-47.99 19 -48.98 19 -50 19 C-50 22.96 -50 26.92 -50 31 C-48.68 31 -47.36 31 -46 31 C-46 33.64 -46 36.28 -46 39 C-42.37 39 -38.74 39 -35 39 C-35 28.77 -35 18.54 -35 8 C-33.68 8 -32.36 8 -31 8 C-31 6.68 -31 5.36 -31 4 C-29.68 4 -28.36 4 -27 4 C-27 10.6 -27 17.2 -27 24 C-25.68 24 -24.36 24 -23 24 C-23 17.73 -23 11.46 -23 5 C-22.01 5 -21.02 5 -20 5 C-20 5.99 -20 6.98 -20 8 C-18.35 8 -16.7 8 -15 8 C-15 9.65 -15 11.3 -15 13 C-14.01 13 -13.02 13 -12 13 C-12 13.99 -12 14.98 -12 16 C-10.68 16 -9.36 16 -8 16 C-8 19.96 -8 23.92 -8 28 C-6.68 28 -5.36 28 -4 28 C-4 28.99 -4 29.98 -4 31 C-2.68 31 -1.36 31 0 31 C0 20.77 0 10.54 0 0 Z " fill="#F2F2F2" transform="translate(496,221)"/>
<path d="M0 0 C1.65 0 3.3 0 5 0 C5 11.88 5 23.76 5 36 C6.65 36 8.3 36 10 36 C10 45.9 10 55.8 10 66 C16.6 66 23.2 66 30 66 C30 71.28 30 76.56 30 82 C28.68 82 27.36 82 26 82 C26 78.37 26 74.74 26 71 C22.37 71 18.74 71 15 71 C15 72.65 15 74.3 15 76 C10.05 76 5.1 76 0 76 C0 74.68 0 73.36 0 72 C1.65 72 3.3 72 5 72 C5 61.77 5 51.54 5 41 C3.35 41 1.7 41 0 41 C0 39.35 0 37.7 0 36 C-1.65 36 -3.3 36 -5 36 C-5 34.02 -5 32.04 -5 30 C-6.65 30 -8.3 30 -10 30 C-10 31.98 -10 33.96 -10 36 C-15.28 36 -20.56 36 -26 36 C-26 37.65 -26 39.3 -26 41 C-27.65 41 -29.3 41 -31 41 C-31 44.3 -31 47.6 -31 51 C-32.65 51 -34.3 51 -36 51 C-36 54.63 -36 58.26 -36 62 C-34.35 62 -32.7 62 -31 62 C-31 66.62 -31 71.24 -31 76 C-32.65 76 -34.3 76 -36 76 C-36 72.7 -36 69.4 -36 66 C-37.65 66 -39.3 66 -41 66 C-41 59.4 -41 52.8 -41 46 C-42.65 45.67 -44.3 45.34 -46 45 C-46 42.03 -46 39.06 -46 36 C-44.35 36 -42.7 36 -41 36 C-41 34.35 -41 32.7 -41 31 C-39.35 31 -37.7 31 -36 31 C-36 29.35 -36 27.7 -36 26 C-34.35 26 -32.7 26 -31 26 C-31 24.35 -31 22.7 -31 21 C-29.35 21 -27.7 21 -26 21 C-26 19.02 -26 17.04 -26 15 C-22.37 15 -18.74 15 -15 15 C-15 13.68 -15 12.36 -15 11 C-13.68 10.67 -12.36 10.34 -11 10 C-10.67 8.35 -10.34 6.7 -10 5 C-6.7 5 -3.4 5 0 5 C0 3.35 0 1.7 0 0 Z " fill="#010101" transform="translate(578,272)"/>
<path d="M0 0 C1.65 0 3.3 0 5 0 C5 3.3 5 6.6 5 10 C6.65 10 8.3 10 10 10 C10 17.26 10 24.52 10 32 C8.35 32 6.7 32 5 32 C5 35.63 5 39.26 5 43 C3.35 43 1.7 43 0 43 C0 44.65 0 46.3 0 48 C-5.61 48 -11.22 48 -17 48 C-17 49.98 -17 51.96 -17 54 C-15.02 54 -13.04 54 -11 54 C-11 59.28 -11 64.56 -11 70 C-14.63 70 -18.26 70 -22 70 C-22 61.09 -22 52.18 -22 43 C-23.65 43 -25.3 43 -27 43 C-27 39.37 -27 35.74 -27 32 C-28.98 32 -30.96 32 -33 32 C-33 28.37 -33 24.74 -33 21 C-31.02 21 -29.04 21 -27 21 C-27 15.72 -27 10.44 -27 5 C-18.09 5 -9.18 5 0 5 C0 3.35 0 1.7 0 0 Z " fill="#FAE6E7" transform="translate(595,105)"/>
<path d="M0 0 C3.63 0 7.26 0 11 0 C11 1.65 11 3.3 11 5 C12.65 5 14.3 5 16 5 C16 6.98 16 8.96 16 11 C17.65 11 19.3 11 21 11 C21 12.98 21 14.96 21 17 C22.98 17 24.96 17 27 17 C27 17.33 27 17.66 27 18 C25.02 18 23.04 18 21 18 C21 19.32 21 20.64 21 22 C22.98 22 24.96 22 27 22 C27 32.56 27 43.12 27 54 C25.02 54 23.04 54 21 54 C21 55.98 21 57.96 21 60 C19.68 60 18.36 60 17 60 C17 56.7 17 53.4 17 50 C18.32 50 19.64 50 21 50 C21 42.41 21 34.82 21 27 C19.35 27 17.7 27 16 27 C16 23.7 16 20.4 16 17 C14.35 17 12.7 17 11 17 C11 18.65 11 20.3 11 22 C2.09 22 -6.82 22 -16 22 C-16 27.28 -16 32.56 -16 38 C-17.98 38 -19.96 38 -22 38 C-22 41.63 -22 45.26 -22 49 C-20.02 49 -18.04 49 -16 49 C-16 52.96 -16 56.92 -16 61 C-14.68 61 -13.36 61 -12 61 C-12 69.58 -12 78.16 -12 87 C-13.65 87 -15.3 87 -17 87 C-17 80.07 -17 73.14 -17 66 C-18.65 66 -20.3 66 -22 66 C-22 62.04 -22 58.08 -22 54 C-23.65 54 -25.3 54 -27 54 C-28 53 -28 53 -28.11352539 51.05053711 C-28.10828857 50.2178833 -28.10305176 49.38522949 -28.09765625 48.52734375 C-28.09443359 47.62822266 -28.09121094 46.72910156 -28.08789062 45.80273438 C-28.07951172 44.85720703 -28.07113281 43.91167969 -28.0625 42.9375 C-28.05573242 41.5134082 -28.05573242 41.5134082 -28.04882812 40.06054688 C-28.0370011 37.70696935 -28.02052025 35.35351523 -28 33 C-29.65 33 -31.3 33 -33 33 C-33 34.65 -33 36.3 -33 38 C-34.65 38 -36.3 38 -38 38 C-38 36.35 -38 34.7 -38 33 C-38.804375 33.020625 -39.60875 33.04125 -40.4375 33.0625 C-43 33 -43 33 -44 32 C-44.04063832 30.33382885 -44.042721 28.66611905 -44 27 C-42.02 27 -40.04 27 -38 27 C-38 23.7 -38 20.4 -38 17 C-36.35 17 -34.7 17 -33 17 C-33 15.02 -33 13.04 -33 11 C-31.35 11 -29.7 11 -28 11 C-28 12.98 -28 14.96 -28 17 C-26.02 17 -24.04 17 -22 17 C-22 13.37 -22 9.74 -22 6 C-18.7 6 -15.4 6 -12 6 C-12 7.65 -12 9.3 -12 11 C-9.69 11 -7.38 11 -5 11 C-5 9.35 -5 7.7 -5 6 C-3.35 6 -1.7 6 0 6 C0 4.02 0 2.04 0 0 Z " fill="#090707" transform="translate(584,88)"/>
<path d="M0 0 C1.32 0 2.64 0 4 0 C4 4.95 4 9.9 4 15 C2.35 15 0.7 15 -1 15 C-1 18.63 -1 22.26 -1 26 C4.61 26 10.22 26 16 26 C16 24.35 16 22.7 16 21 C17.65 21 19.3 21 21 21 C21 19.02 21 17.04 21 15 C22.98 15 24.96 15 27 15 C27 16.65 27 18.3 27 20 C30.63 20 34.26 20 38 20 C38 21.65 38 23.3 38 25 C39.65 25 41.3 25 43 25 C43 28.96 43 32.92 43 37 C44.65 37 46.3 37 48 37 C48 26.44 48 15.88 48 5 C49.65 5 51.3 5 53 5 C53 17.21 53 29.42 53 42 C51.35 42 49.7 42 48 42 C48 43.65 48 45.3 48 47 C43.05 47.495 43.05 47.495 38 48 C37.67 54.93 37.34 61.86 37 69 C35.35 69 33.7 69 32 69 C32 63.39 32 57.78 32 52 C28.37 52 24.74 52 21 52 C21 50.35 21 48.7 21 47 C19.02 47 17.04 47 15 47 C15 54.26 15 61.52 15 69 C13.35 69 11.7 69 10 69 C10 60.09 10 51.18 10 42 C8.35 42 6.7 42 5 42 C5 40.35 5 38.7 5 37 C3.35 37 1.7 37 0 37 C-0.33 35.35 -0.66 33.7 -1 32 C-2.65 31.67 -4.3 31.34 -6 31 C-6 24.07 -6 17.14 -6 10 C-4.02 10 -2.04 10 0 10 C0 6.7 0 3.4 0 0 Z " fill="#050403" transform="translate(205,248)"/>
<path d="M0 0 C3.3 0 6.6 0 10 0 C10 3.3 10 6.6 10 10 C11.65 10 13.3 10 15 10 C15 8.35 15 6.7 15 5 C16.98 5 18.96 5 21 5 C21 6.65 21 8.3 21 10 C22.65 10 24.3 10 26 10 C26 13.63 26 17.26 26 21 C27.98 21 29.96 21 32 21 C32 19.35 32 17.7 32 16 C33.65 16 35.3 16 37 16 C37 19.3 37 22.6 37 26 C38.65 26 40.3 26 42 26 C42 31.28 42 36.56 42 42 C40.35 42 38.7 42 37 42 C37 40.35 37 38.7 37 37 C33.7 37 30.4 37 27 37 C27 38.65 27 40.3 27 42 C26 43 26 43 23.4375 43.0625 C22.633125 43.041875 21.82875 43.02125 21 43 C21 41.02 21 39.04 21 37 C19.02 37 17.04 37 15 37 C15 38.65 15 40.3 15 42 C12.03 42 9.06 42 6 42 C6 40.35 6 38.7 6 37 C7.32 37 8.64 37 10 37 C10 33.37 10 29.74 10 26 C4.72 26 -0.56 26 -6 26 C-6 24.35 -6 22.7 -6 21 C-7.65 21 -9.3 21 -11 21 C-11 24.63 -11 28.26 -11 32 C-14.63 31.67 -18.26 31.34 -22 31 C-22 29.35 -22 27.7 -22 26 C-25.63 26 -29.26 26 -33 26 C-33 22.7 -33 19.4 -33 16 C-29.37 16 -25.74 16 -22 16 C-22 14.02 -22 12.04 -22 10 C-18.37 10 -14.74 10 -11 10 C-11 8.35 -11 6.7 -11 5 C-7.7 5 -4.4 5 -1 5 C-1 6.65 -1 8.3 -1 10 C0.98 10 2.96 10 5 10 C5 8.02 5 6.04 5 4 C3.35 4 1.7 4 0 4 C0 2.68 0 1.36 0 0 Z " fill="#E93C32" transform="translate(273,74)"/>
<path d="M0 0 C1.65 0 3.3 0 5 0 C5 1.98 5 3.96 5 6 C6.65 6 8.3 6 10 6 C10 7.65 10 9.3 10 11 C11.65 11 13.3 11 15 11 C15 20.9 15 30.8 15 41 C13.35 41 11.7 41 10 41 C10 39.35 10 37.7 10 36 C3.07 36 -3.86 36 -11 36 C-10.67 37.65 -10.34 39.3 -10 41 C-7.03 41.33 -4.06 41.66 -1 42 C-1 44.97 -1 47.94 -1 51 C-2.32 51 -3.64 51 -5 51 C-5 56.28 -5 61.56 -5 67 C-8.63 67 -12.26 67 -16 67 C-16 60.07 -16 53.14 -16 46 C-17.32 46 -18.64 46 -20 46 C-20 41.05 -20 36.1 -20 31 C-21.98 31 -23.96 31 -26 31 C-26 27.7 -26 24.4 -26 21 C-24.35 21 -22.7 21 -21 21 C-21 17.7 -21 14.4 -21 11 C-19.35 11 -17.7 11 -16 11 C-16 9.35 -16 7.7 -16 6 C-10.72 6 -5.44 6 0 6 C0 4.02 0 2.04 0 0 Z " fill="#917A70" transform="translate(568,302)"/>
<path d="M0 0 C6.6 0 13.2 0 20 0 C20 1.65 20 3.3 20 5 C22.31 5 24.62 5 27 5 C27 6.32 27 7.64 27 9 C28.32 9 29.64 9 31 9 C31 17.58 31 26.16 31 35 C29.68 35 28.36 35 27 35 C27 36.65 27 38.3 27 40 C26.01 40 25.02 40 24 40 C24 42.31 24 44.62 24 47 C16.08 47 8.16 47 0 47 C0 31.49 0 15.98 0 0 Z " fill="#F3F3F3" transform="translate(403,225)"/>
<path d="M0 0 C6.27 0 12.54 0 19 0 C19 1.65 19 3.3 19 5 C17.68 5 16.36 5 15 5 C15.33 8.3 15.66 11.6 16 15 C16.66 15 17.32 15 18 15 C18 16.65 18 18.3 18 20 C19.98 20 21.96 20 24 20 C24 18.35 24 16.7 24 15 C22.35 15 20.7 15 19 15 C19.495 14.278125 19.99 13.55625 20.5 12.8125 C22.09263231 9.82631441 22.18358803 8.3045846 22 5 C23 4 23 4 25.5 3.875 C28 4 28 4 29 5 C29.01670061 6.71003031 28.96290858 8.42085878 28.87890625 10.12890625 C28.83056641 11.16337891 28.78222656 12.19785156 28.73242188 13.26367188 C28.67634766 14.35228516 28.62027344 15.44089844 28.5625 16.5625 C28.51029297 17.65498047 28.45808594 18.74746094 28.40429688 19.87304688 C28.27415852 22.58229076 28.13917946 25.29120794 28 28 C26.68 28.33 25.36 28.66 24 29 C23.67 31.97 23.34 34.94 23 38 C21.68 38 20.36 38 19 38 C19 36.35 19 34.7 19 33 C14.38 33 9.76 33 5 33 C5 34.98 5 36.96 5 39 C9.29 39 13.58 39 18 39 C18 41.64 18 44.28 18 47 C15.36 47 12.72 47 10 47 C10 45.68 10 44.36 10 43 C8.35 43 6.7 43 5 43 C5 44.65 5 46.3 5 48 C6.65 48 8.3 48 10 48 C10 49.65 10 51.3 10 53 C11.32 53 12.64 53 14 53 C14 57.29 14 61.58 14 66 C9.38 66 4.76 66 0 66 C0 58.41 0 50.82 0 43 C-1.32 43 -2.64 43 -4 43 C-4 41.35 -4 39.7 -4 38 C-5.65 38 -7.3 38 -9 38 C-9.33 35.03 -9.66 32.06 -10 29 C-10.99 28.67 -11.98 28.34 -13 28 C-13 26.68 -13 25.36 -13 24 C-11.68 24 -10.36 24 -9 24 C-9 21.03 -9 18.06 -9 15 C-7.68 15 -6.36 15 -5 15 C-5 18.3 -5 21.6 -5 25 C-0.38 25 4.24 25 9 25 C9 26.32 9 27.64 9 29 C10.98 29 12.96 29 15 29 C15 25.7 15 22.4 15 19 C12.56282742 19.27034634 12.56282742 19.27034634 10 20 C9.34 20.99 8.68 21.98 8 23 C5.36 22.67 2.72 22.34 0 22 C0 21.67 0 21.34 0 21 C1.65 20.67 3.3 20.34 5 20 C5.12375 19.2575 5.2475 18.515 5.375 17.75 C6 15 6 15 8 11 C4.04 11 0.08 11 -4 11 C-4 9.35 -4 7.7 -4 6 C-2.68 6 -1.36 6 0 6 C0 4.02 0 2.04 0 0 Z M10 16 C11.98 16.99 11.98 16.99 14 18 C14.33 17.34 14.66 16.68 15 16 C13.35 16 11.7 16 10 16 Z " fill="#F48F11" transform="translate(674,214)"/>
<path d="M0 0 C6.27 0 12.54 0 19 0 C19 1.32 19 2.64 19 4 C20.32 4 21.64 4 23 4 C23 5.32 23 6.64 23 8 C23.99 8 24.98 8 26 8 C26 10.31 26 12.62 26 15 C22.37 15 18.74 15 15 15 C15 14.01 15 13.02 15 12 C11.37 12 7.74 12 4 12 C4 13.32 4 14.64 4 16 C2.68 16 1.36 16 0 16 C0 17.32 0 18.64 0 20 C-1.32 20 -2.64 20 -4 20 C-4 24.95 -4 29.9 -4 35 C-2.68 35 -1.36 35 0 35 C0 36.32 0 37.64 0 39 C4.95 39 9.9 39 15 39 C15 37.68 15 36.36 15 35 C18.96 35 22.92 35 27 35 C27 38.96 27 42.92 27 47 C24.36 47 21.72 47 19 47 C19 48.32 19 49.64 19 51 C12.73 51 6.46 51 0 51 C0 49.35 0 47.7 0 46 C-2.64 46 -5.28 46 -8 46 C-8 44.68 -8 43.36 -8 42 C-9.32 42 -10.64 42 -12 42 C-12 30.78 -12 19.56 -12 8 C-9.36 8 -6.72 8 -4 8 C-4 6.68 -4 5.36 -4 4 C-2.68 4 -1.36 4 0 4 C0 2.68 0 1.36 0 0 Z " fill="#F4F4F4" transform="translate(334,167)"/>
<path d="M0 0 C8.91 0 17.82 0 27 0 C27 1.65 27 3.3 27 5 C29.475 5.495 29.475 5.495 32 6 C32 6.99 32 7.98 32 9 C33.32 9 34.64 9 36 9 C36 10.65 36 12.3 36 14 C37.65 14 39.3 14 41 14 C41 26.21 41 38.42 41 51 C39.35 51 37.7 51 36 51 C36 52.32 36 53.64 36 55 C34.68 55 33.36 55 32 55 C32 56.65 32 58.3 32 60 C29.03 60 26.06 60 23 60 C23 61.32 23 62.64 23 64 C21.35 64 19.7 64 18 64 C18 66.97 18 69.94 18 73 C16.68 73 15.36 73 14 73 C14 70.03 14 67.06 14 64 C10.7 64 7.4 64 4 64 C4 62.68 4 61.36 4 60 C2.68 60 1.36 60 0 60 C0 58.35 0 56.7 0 55 C1.32 55 2.64 55 4 55 C4 53.68 4 52.36 4 51 C8.62 51 13.24 51 18 51 C18 52.32 18 53.64 18 55 C20.97 55 23.94 55 27 55 C27 53.68 27 52.36 27 51 C28.65 51 30.3 51 32 51 C32 49.35 32 47.7 32 46 C33.65 46 35.3 46 37 46 C37 36.76 37 27.52 37 18 C35.35 18 33.7 18 32 18 C32 16.68 32 15.36 32 14 C30.35 14 28.7 14 27 14 C27 12.35 27 10.7 27 9 C25.68 9 24.36 9 23 9 C23 7.35 23 5.7 23 4 C16.73 4 10.46 4 4 4 C4 5.65 4 7.3 4 9 C1.03 9 -1.94 9 -5 9 C-5 10.65 -5 12.3 -5 14 C-6.65 14 -8.3 14 -10 14 C-10 15.32 -10 16.64 -10 18 C-11.65 18 -13.3 18 -15 18 C-15 20.97 -15 23.94 -15 27 C-16.32 27 -17.64 27 -19 27 C-19 22.71 -19 18.42 -19 14 C-17.35 14 -15.7 14 -14 14 C-14 12.35 -14 10.7 -14 9 C-12.68 9 -11.36 9 -10 9 C-10 7.68 -10 6.36 -10 5 C-5.545 4.505 -5.545 4.505 -1 4 C-0.67 2.68 -0.34 1.36 0 0 Z " fill="#020103" transform="translate(348,288)"/>
<path d="M0 0 C6.27 0 12.54 0 19 0 C19 1.65 19 3.3 19 5 C20.32 5 21.64 5 23 5 C23 6.65 23 8.3 23 10 C24.65 10 26.3 10 28 10 C28 11.65 28 13.3 28 15 C29.32 15 30.64 15 32 15 C32 17.64 32 20.28 32 23 C21.21301108 24.07906385 10.51589445 24.11801948 -0.3125 24.0625 C-2.03580598 24.05747105 -3.75911339 24.05291063 -5.48242188 24.04882812 C-9.65498409 24.037942 -13.82747568 24.02075565 -18 24 C-18 21.03 -18 18.06 -18 15 C-16.68 15 -15.36 15 -14 15 C-14 13.35 -14 11.7 -14 10 C-12.35 10 -10.7 10 -9 10 C-9 8.35 -9 6.7 -9 5 C-6.03 5 -3.06 5 0 5 C0 3.35 0 1.7 0 0 Z " fill="#1F2776" transform="translate(352,292)"/>
<path d="M0 0 C1.98 0 3.96 0 6 0 C6 1.98 6 3.96 6 6 C8.31 6 10.62 6 13 6 C13 7.98 13 9.96 13 12 C14.98 12 16.96 12 19 12 C19 14.31 19 16.62 19 19 C21.31 19 23.62 19 26 19 C26 21.31 26 23.62 26 26 C30.29 26 34.58 26 39 26 C39 23.36 39 20.72 39 18 C40.98 18 42.96 18 45 18 C45 16.02 45 14.04 45 12 C47.31 12 49.62 12 52 12 C52 10.02 52 8.04 52 6 C54.31 6 56.62 6 59 6 C59 4.02 59 2.04 59 0 C60.98 0 62.96 0 65 0 C65 3.96 65 7.92 65 12 C62.69 12 60.38 12 58 12 C58 14.31 58 16.62 58 19 C56.02 19 54.04 19 52 19 C52 20.98 52 22.96 52 25 C50 26 50 26 46 26 C45.67 27.98 45.34 29.96 45 32 C43.68 32 42.36 32 41 32 C41 33.98 41 35.96 41 38 C39.68 38 38.36 38 37 38 C37 39.32 37 40.64 37 42 C36.01 42 35.02 42 34 42 C34 39.36 34 36.72 34 34 C31.03 34 28.06 34 25 34 C25 49.51 25 65.02 25 81 C24.67 81 24.34 81 24 81 C23.34 65.82 22.68 50.64 22 35 C20.515 34.505 20.515 34.505 19 34 C19.33 31.03 19.66 28.06 20 25 C17.69 25 15.38 25 13 25 C13 23.02 13 21.04 13 19 C10.69 19 8.38 19 6 19 C6 16.69 6 14.38 6 12 C4.02 12 2.04 12 0 12 C0 8.04 0 4.08 0 0 Z " fill="#080101" transform="translate(482,191)"/>
<path d="M0 0 C1.65 0 3.3 0 5 0 C5 1.98 5 3.96 5 6 C6.65 6 8.3 6 10 6 C10 7.65 10 9.3 10 11 C11.98 11 13.96 11 16 11 C16 7.37 16 3.74 16 0 C19.63 0 23.26 0 27 0 C27 1.65 27 3.3 27 5 C28.65 5 30.3 5 32 5 C32 6.98 32 8.96 32 11 C33.98 11 35.96 11 38 11 C38 9.02 38 7.04 38 5 C39.65 5 41.3 5 43 5 C43 15.89 43 26.78 43 38 C41.35 38 39.7 38 38 38 C38 34.04 38 30.08 38 26 C36.35 26 34.7 26 33 26 C33 24.35 33 22.7 33 21 C29.37 21 25.74 21 22 21 C22 19.35 22 17.7 22 16 C20.02 16 18.04 16 16 16 C16 17.98 16 19.96 16 22 C14.35 22 12.7 22 11 22 C11 23.65 11 25.3 11 27 C7.37 27 3.74 27 0 27 C0 25.02 0 23.04 0 21 C-1.65 21 -3.3 21 -5 21 C-5 19.68 -5 18.36 -5 17 C-3.35 17 -1.7 17 0 17 C0 11.39 0 5.78 0 0 Z " fill="#F7C4B3" transform="translate(210,247)"/>
<path d="M0 0 C2.64 0 5.28 0 8 0 C8 3.96 8 7.92 8 12 C5.36 12 2.72 12 0 12 C0 13.32 0 14.64 0 16 C-1.32 16 -2.64 16 -4 16 C-4 18.64 -4 21.28 -4 24 C-2.68 24 -1.36 24 0 24 C0 24.99 0 25.98 0 27 C1.32 27 2.64 27 4 27 C4 28.32 4 29.64 4 31 C5.32 31 6.64 31 8 31 C8 32.32 8 33.64 8 35 C10.64 35 13.28 35 16 35 C16 38.96 16 42.92 16 47 C12.04 47 8.08 47 4 47 C4 45.68 4 44.36 4 43 C2.68 43 1.36 43 0 43 C0 41.68 0 40.36 0 39 C-1.32 39 -2.64 39 -4 39 C-4 37.68 -4 36.36 -4 35 C-5.32 35 -6.64 35 -8 35 C-8 38.96 -8 42.92 -8 47 C-10.31 47 -12.62 47 -15 47 C-15 31.82 -15 16.64 -15 1 C-12.69 1 -10.38 1 -8 1 C-8 3.64 -8 6.28 -8 9 C-6.68 9 -5.36 9 -4 9 C-4 7.35 -4 5.7 -4 4 C-2.68 4 -1.36 4 0 4 C0 2.68 0 1.36 0 0 Z " fill="#F5F5F5" transform="translate(523,225)"/>
<path d="M0 0 C8.91 0 17.82 0 27 0 C27 1.32 27 2.64 27 4 C29.31 4 31.62 4 34 4 C34 6.31 34 8.62 34 11 C31.69 11 29.38 11 27 11 C27 9.68 27 8.36 27 7 C23.37 7 19.74 7 16 7 C16 5.68 16 4.36 16 3 C14.35 3 12.7 3 11 3 C11 4.32 11 5.64 11 7 C10.01 7 9.02 7 8 7 C8 9.64 8 12.28 8 15 C8.99 15 9.98 15 11 15 C11 16.32 11 17.64 11 19 C16.28 19 21.56 19 27 19 C27 19.99 27 20.98 27 22 C28.32 22 29.64 22 31 22 C31 24.64 31 27.28 31 30 C31.99 30 32.98 30 34 30 C34 33.96 34 37.92 34 42 C31.69 42 29.38 42 27 42 C27 43.32 27 44.64 27 46 C20.73 46 14.46 46 8 46 C8 43.36 8 40.72 8 38 C14.27 38 20.54 38 27 38 C27 35.36 27 32.72 27 30 C25.68 30 24.36 30 23 30 C23 28.68 23 27.36 23 26 C18.05 26 13.1 26 8 26 C8 24.68 8 23.36 8 22 C6.68 22 5.36 22 4 22 C4 21.01 4 20.02 4 19 C2.68 19 1.36 19 0 19 C0 12.73 0 6.46 0 0 Z " fill="#F2F2F2" transform="translate(535,226)"/>
<path d="M0 0 C8.58 0 17.16 0 26 0 C26 2.31 26 4.62 26 7 C28.31 7 30.62 7 33 7 C33 4.69 33 2.38 33 0 C39.27 0 45.54 0 52 0 C52 2.31 52 4.62 52 7 C54.31 7 56.62 7 59 7 C59 10.96 59 14.92 59 19 C57.02 19 55.04 19 53 19 C53 16.69 53 14.38 53 12 C51.02 12 49.04 12 47 12 C47 10.35 47 8.7 47 7 C44.69 7 42.38 7 40 7 C40 8.98 40 10.96 40 13 C33.34362157 14.23839599 26.7528064 14.09139136 20 14 C20 11.69 20 9.38 20 7 C15.71 7 11.42 7 7 7 C7 9.31 7 11.62 7 14 C4.69 14 2.38 14 0 14 C0 15.65 0 17.3 0 19 C-1.98 19 -3.96 19 -6 19 C-6.19401633 17.18818595 -6.38004375 15.37551468 -6.5625 13.5625 C-6.66691406 12.55316406 -6.77132813 11.54382813 -6.87890625 10.50390625 C-6.93884766 9.26447266 -6.93884766 9.26447266 -7 8 C-6 7 -6 7 -2.9375 6.9375 C-1.4834375 6.9684375 -1.4834375 6.9684375 0 7 C0 4.69 0 2.38 0 0 Z " fill="#0A0202" transform="translate(488,157)"/>
<path d="M0 0 C8.91 0 17.82 0 27 0 C27 1.98 27 3.96 27 6 C25.68 6 24.36 6 23 6 C23 20.52 23 35.04 23 50 C19.04 50 15.08 50 11 50 C11 40.76 11 31.52 11 22 C12.32 22 13.64 22 15 22 C15 19.69 15 17.38 15 15 C13.68 15 12.36 15 11 15 C11 12.03 11 9.06 11 6 C7.37 6 3.74 6 0 6 C0 4.02 0 2.04 0 0 Z " fill="#F4F4F4" transform="translate(454,168)"/>
<path d="M0 0 C1.65 0 3.3 0 5 0 C5 1.65 5 3.3 5 5 C10.28 5 15.56 5 21 5 C21.33 6.65 21.66 8.3 22 10 C24.475 10.495 24.475 10.495 27 11 C27 14.3 27 17.6 27 21 C21.72 21 16.44 21 11 21 C11 17.37 11 13.74 11 10 C9.02 10 7.04 10 5 10 C5 11.65 5 13.3 5 15 C3.35 15 1.7 15 0 15 C0 18.96 0 22.92 0 27 C1.65 27 3.3 27 5 27 C5 28.65 5 30.3 5 32 C6.98 32 8.96 32 11 32 C11 40.25 11 48.5 11 57 C9.02 57 7.04 57 5 57 C5 50.4 5 43.8 5 37 C3.35 37 1.7 37 0 37 C0 35.02 0 33.04 0 31 C-1.65 31 -3.3 31 -5 31 C-5 22.42 -5 13.84 -5 5 C-3.35 5 -1.7 5 0 5 C0 3.35 0 1.7 0 0 Z " fill="#030101" transform="translate(251,106)"/>
<path d="M0 0 C5.28 0 10.56 0 16 0 C16 1.98 16 3.96 16 6 C16.804375 5.979375 17.60875 5.95875 18.4375 5.9375 C21 6 21 6 22 7 C22.08651611 8.41570123 22.10704904 9.835595 22.09765625 11.25390625 C22.09515869 12.0229126 22.09266113 12.79191895 22.09008789 13.58422852 C22.08098389 14.56705811 22.07187988 15.5498877 22.0625 16.5625 C22.041875 19.676875 22.02125 22.79125 22 26 C13.09 26 4.18 26 -5 26 C-5.33 19.4 -5.66 12.8 -6 6 C-4.02 6 -2.04 6 0 6 C0 4.02 0 2.04 0 0 Z " fill="#7A29A5" transform="translate(221,220)"/>
<path d="M0 0 C1.98 0 3.96 0 6 0 C6 8.91 6 17.82 6 27 C7.65 27 9.3 27 11 27 C11 29.31 11 31.62 11 34 C9.02 34 7.04 34 5 34 C5 32.02 5 30.04 5 28 C3.35 28 1.7 28 0 28 C0 26.02 0 24.04 0 22 C-1.65 22 -3.3 22 -5 22 C-5 20.35 -5 18.7 -5 17 C-8.63 17 -12.26 17 -16 17 C-16 18.98 -16 20.96 -16 23 C-17.65 23 -19.3 23 -21 23 C-21 24.65 -21 26.3 -21 28 C-22.98 28 -24.96 28 -27 28 C-27 19.09 -27 10.18 -27 1 C-25.35 1 -23.7 1 -22 1 C-22 2.65 -22 4.3 -22 6 C-20.02 6 -18.04 6 -16 6 C-16 7.65 -16 9.3 -16 11 C-12.37 11 -8.74 11 -5 11 C-5 9.35 -5 7.7 -5 6 C-3.35 6 -1.7 6 0 6 C0 4.02 0 2.04 0 0 Z " fill="#D93A34" transform="translate(600,71)"/>
<path d="M0 0 C6.93 0 13.86 0 21 0 C21 1.65 21 3.3 21 5 C22.65 5 24.3 5 26 5 C26 5.33 26 5.66 26 6 C24.35 6 22.7 6 21 6 C21 7.32 21 8.64 21 10 C25.95 10 30.9 10 36 10 C36 8.35 36 6.7 36 5 C39.3 5 42.6 5 46 5 C46 8.63 46 12.26 46 16 C44.35 16 42.7 16 41 16 C41 17.65 41 19.3 41 21 C37.7 21 34.4 21 31 21 C31 19.35 31 17.7 31 16 C26.05 16 21.1 16 16 16 C15.67 17.65 15.34 19.3 15 21 C13.68 20.67 12.36 20.34 11 20 C11 23.63 11 27.26 11 31 C9.35 31 7.7 31 6 31 C6 25.72 6 20.44 6 15 C7.32 15 8.64 15 10 15 C10 12.03 10 9.06 10 6 C7.8034375 6.0309375 7.8034375 6.0309375 5.5625 6.0625 C4.04167482 6.08392007 2.51928038 6.07179964 1 6 C0.67 5.67 0.34 5.34 0 5 C0 3.35 0 1.7 0 0 Z " fill="#020101" transform="translate(557,338)"/>
<path d="M0 0 C1.98 0 3.96 0 6 0 C6 1.98 6 3.96 6 6 C7.65 5.67 9.3 5.34 11 5 C11.33 3.35 11.66 1.7 12 0 C13.65 0 15.3 0 17 0 C17 8.58 17 17.16 17 26 C17.99 26 18.98 26 20 26 C20 24.35 20 22.7 20 21 C20.33 21 20.66 21 21 21 C21.33 24.3 21.66 27.6 22 31 C13.09 31 4.18 31 -5 31 C-5 29.68 -5 28.36 -5 27 C-6.65 27 -8.3 27 -10 27 C-10 25.02 -10 23.04 -10 21 C-8.35 21 -6.7 21 -5 21 C-5 22.65 -5 24.3 -5 26 C0.28 26 5.56 26 11 26 C11 22.7 11 19.4 11 16 C5.72 16 0.44 16 -5 16 C-5 12.37 -5 8.74 -5 5 C-3.35 5 -1.7 5 0 5 C0 3.35 0 1.7 0 0 Z " fill="#040202" transform="translate(288,111)"/>
<path d="M0 0 C1.65 0 3.3 0 5 0 C3.68 0.33 2.36 0.66 1 1 C1 2.65 1 4.3 1 6 C4.96 6 8.92 6 13 6 C13 12.75 13 12.75 10 16 C10.99 16.33 11.98 16.66 13 17 C13.66 16.01 14.32 15.02 15 14 C16.65 14 18.3 14 20 14 C20 17.3 20 20.6 20 24 C18.02 24 16.04 24 14 24 C14 22.68 14 21.36 14 20 C9.38 20 4.76 20 0 20 C0 16.7 0 13.4 0 10 C-1.32 10 -2.64 10 -4 10 C-4 12.97 -4 15.94 -4 19 C-5.32 19 -6.64 19 -8 19 C-8 20.32 -8 21.64 -8 23 C-6.68 23.33 -5.36 23.66 -4 24 C-4 26.97 -4 29.94 -4 33 C-4.33 31.68 -4.66 30.36 -5 29 C-6.32 29 -7.64 29 -9 29 C-9 25.37 -9 21.74 -9 18 C-7.68 18 -6.36 18 -5 18 C-5 15.69 -5 13.38 -5 11 C-5.99 11 -6.98 11 -8 11 C-8 12.32 -8 13.64 -8 15 C-11.3 15 -14.6 15 -18 15 C-18 16.32 -18 17.64 -18 19 C-19.65 19 -21.3 19 -23 19 C-23 17.68 -23 16.36 -23 15 C-24.65 15 -26.3 15 -28 15 C-28 13.35 -28 11.7 -28 10 C-24.7 10 -21.4 10 -18 10 C-18 8.35 -18 6.7 -18 5 C-12.06 5 -6.12 5 0 5 C0 3.35 0 1.7 0 0 Z " fill="#9A8E80" transform="translate(669,219)"/>
<path d="M0 0 C3.63 0 7.26 0 11 0 C11 1.65 11 3.3 11 5 C14.63 5 18.26 5 22 5 C22 6.65 22 8.3 22 10 C23.65 10 25.3 10 27 10 C27 11.98 27 13.96 27 16 C28.65 16 30.3 16 32 16 C32.495 17.485 32.495 17.485 33 19 C34.98 19.33 36.96 19.66 39 20 C39 21.65 39 23.3 39 25 C39.99 25 40.98 25 42 25 C42 20.38 42 15.76 42 11 C40.68 10.67 39.36 10.34 38 10 C39.65 10 41.3 10 43 10 C43 15.28 43 20.56 43 26 C41.35 26 39.7 26 38 26 C38 24.35 38 22.7 38 21 C34.7 21 31.4 21 28 21 C28 22.65 28 24.3 28 26 C27 27 27 27 24.4375 27.0625 C23.633125 27.041875 22.82875 27.02125 22 27 C22 25.02 22 23.04 22 21 C20.02 21 18.04 21 16 21 C16 22.65 16 24.3 16 26 C13.03 26 10.06 26 7 26 C7 24.35 7 22.7 7 21 C8.32 21 9.64 21 11 21 C11 17.37 11 13.74 11 10 C5.72 10 0.44 10 -5 10 C-5 8.35 -5 6.7 -5 5 C-6.65 5 -8.3 5 -10 5 C-10 4.67 -10 4.34 -10 4 C-8.02 4 -6.04 4 -4 4 C-3.67 5.65 -3.34 7.3 -3 9 C-0.03 9 2.94 9 6 9 C6 7.68 6 6.36 6 5 C4.02 5 2.04 5 0 5 C0 3.35 0 1.7 0 0 Z " fill="#CA2C29" transform="translate(272,90)"/>
<path d="M0 0 C1.65 0 3.3 0 5 0 C5.33 3.3 5.66 6.6 6 10 C7.98 10 9.96 10 12 10 C12 20.23 12 30.46 12 41 C12.99 41 13.98 41 15 41 C15.33 39.35 15.66 37.7 16 36 C17.98 36 19.96 36 22 36 C22.33 37.65 22.66 39.3 23 41 C23.66 41 24.32 41 25 41 C25.33 39.35 25.66 37.7 26 36 C27.98 36 29.96 36 32 36 C32 38.31 32 40.62 32 43 C33.65 43 35.3 43 37 43 C37 44.65 37 46.3 37 48 C35.35 48 33.7 48 32 48 C32 49.65 32 51.3 32 53 C25.07 53 18.14 53 11 53 C11 49.7 11 46.4 11 43 C9.02 43 7.04 43 5 43 C5 41.02 5 39.04 5 37 C6.98 37 8.96 37 11 37 C11 28.42 11 19.84 11 11 C9.02 11 7.04 11 5 11 C5 9.35 5 7.7 5 6 C3.35 6 1.7 6 0 6 C0 4.02 0 2.04 0 0 Z " fill="#484781" transform="translate(251,127)"/>
<path d="M0 0 C6.27 0 12.54 0 19 0 C19 1.65 19 3.3 19 5 C17.68 5 16.36 5 15 5 C15.33 8.3 15.66 11.6 16 15 C16.66 15 17.32 15 18 15 C18 16.65 18 18.3 18 20 C19.98 20 21.96 20 24 20 C24 18.35 24 16.7 24 15 C22.35 15 20.7 15 19 15 C19.495 14.278125 19.99 13.55625 20.5 12.8125 C22.09263231 9.82631441 22.18358803 8.3045846 22 5 C23 4 23 4 25.5 3.875 C28 4 28 4 29 5 C29.0165911 6.41844613 28.9633054 7.83787607 28.87890625 9.25390625 C28.83056641 10.10791016 28.78222656 10.96191406 28.73242188 11.84179688 C28.67634766 12.73962891 28.62027344 13.63746094 28.5625 14.5625 C28.51029297 15.46419922 28.45808594 16.36589844 28.40429688 17.29492188 C28.2741999 19.53022453 28.13769204 21.76515234 28 24 C23.71 24 19.42 24 15 24 C15 22.35 15 20.7 15 19 C12.56282742 19.27034634 12.56282742 19.27034634 10 20 C9.34 20.99 8.68 21.98 8 23 C5.36 22.67 2.72 22.34 0 22 C0 21.67 0 21.34 0 21 C1.65 20.67 3.3 20.34 5 20 C5.12375 19.2575 5.2475 18.515 5.375 17.75 C6 15 6 15 8 11 C4.04 11 0.08 11 -4 11 C-4 9.35 -4 7.7 -4 6 C-2.68 6 -1.36 6 0 6 C0 4.02 0 2.04 0 0 Z M10 16 C11.98 16.99 11.98 16.99 14 18 C14.33 17.34 14.66 16.68 15 16 C13.35 16 11.7 16 10 16 Z " fill="#9C9489" transform="translate(674,214)"/>
<path d="M0 0 C6.27 0 12.54 0 19 0 C19 1.65 19 3.3 19 5 C20.32 5 21.64 5 23 5 C23 6.98 23 8.96 23 11 C24.32 11 25.64 11 27 11 C27 11.99 27 12.98 27 14 C13.8 14 0.6 14 -13 14 C-13 13.01 -13 12.02 -13 11 C-11.68 11 -10.36 11 -9 11 C-9 9.02 -9 7.04 -9 5 C-6.03 5 -3.06 5 0 5 C0 3.35 0 1.7 0 0 Z " fill="#36459E" transform="translate(352,292)"/>
<path d="M0 0 C2.64 0 5.28 0 8 0 C8.33 0.99 8.66 1.98 9 3 C11.97 3.33 14.94 3.66 18 4 C18.33 5.32 18.66 6.64 19 8 C20.32 8.33 21.64 8.66 23 9 C23 10.65 23 12.3 23 14 C24.65 14 26.3 14 28 14 C28 16.97 28 19.94 28 23 C26.68 23 25.36 23 24 23 C24 21.35 24 19.7 24 18 C22.35 18 20.7 18 19 18 C18.505 15.525 18.505 15.525 18 13 C16.35 13 14.7 13 13 13 C13.020625 13.969375 13.04125 14.93875 13.0625 15.9375 C13 19 13 19 12 20 C12.66 20.66 13.32 21.32 14 22 C14.125 25.125 14.125 25.125 14 28 C12.02 28 10.04 28 8 28 C8 26.35 8 24.7 8 23 C7.01 23.33 6.02 23.66 5 24 C5 20.37 5 16.74 5 13 C6.32 13 7.64 13 9 13 C9 11.35 9 9.7 9 8 C4.38 8 -0.24 8 -5 8 C-5 6.68 -5 5.36 -5 4 C-3.35 4 -1.7 4 0 4 C0 2.68 0 1.36 0 0 Z M0 24 C1.65 24 3.3 24 5 24 C4.34 24.66 3.68 25.32 3 26 C2.01 25.34 1.02 24.68 0 24 Z " fill="#557081" transform="translate(684,206)"/>
<path d="M0 0 C1.98 0 3.96 0 6 0 C6 4.95 6 9.9 6 15 C8.22621094 14.98839844 10.45242187 14.97679687 12.74609375 14.96484375 C14.89396014 14.95705278 17.04182497 14.95097625 19.18969727 14.94506836 C20.68644918 14.94002879 22.18319616 14.93319713 23.67993164 14.92456055 C25.82699807 14.91247841 27.97399962 14.90676809 30.12109375 14.90234375 C32.06133423 14.89448853 32.06133423 14.89448853 34.04077148 14.88647461 C37 15 37 15 38 16 C38.07226502 17.85287502 38.0838122 19.70833878 38.0625 21.5625 C38.05347656 22.57441406 38.04445312 23.58632812 38.03515625 24.62890625 C38.02355469 25.41136719 38.01195312 26.19382812 38 27 C36.02 27 34.04 27 32 27 C32 25.02 32 23.04 32 21 C30.35 21 28.7 21 27 21 C27 19.35 27 17.7 27 16 C23.37 16 19.74 16 16 16 C16 19.63 16 23.26 16 27 C14.02 27 12.04 27 10 27 C10 25.35 10 23.7 10 22 C8.35 22 6.7 22 5 22 C5 20.02 5 18.04 5 16 C1.7 16 -1.6 16 -5 16 C-5 14.35 -5 12.7 -5 11 C-3.35 11 -1.7 11 0 11 C0 7.37 0 3.74 0 0 Z " fill="#7D3391" transform="translate(210,231)"/>
<path d="M0 0 C1.65 0 3.3 0 5 0 C5 1.65 5 3.3 5 5 C10.28 5 15.56 5 21 5 C21 8.63 21 12.26 21 16 C19.68 16 18.36 16 17 16 C17 17.65 17 19.3 17 21 C18.32 21.33 19.64 21.66 21 22 C19.35425434 22.02688151 17.70838587 22.04634123 16.0625 22.0625 C15.14597656 22.07410156 14.22945313 22.08570312 13.28515625 22.09765625 C11 22 11 22 10 21 C10 19.35 10 17.7 10 16 C4.72 16 -0.56 16 -6 16 C-6 14.35 -6 12.7 -6 11 C-4.02 11 -2.04 11 0 11 C0 7.37 0 3.74 0 0 Z " fill="#72483D" transform="translate(262,95)"/>
<path d="M0 0 C1.32 0 2.64 0 4 0 C4 0.99 4 1.98 4 3 C4.99 3 5.98 3 7 3 C7 4.32 7 5.64 7 7 C8.32 7 9.64 7 11 7 C11 8.65 11 10.3 11 12 C10.67 12 10.34 12 10 12 C9.34 16.95 8.68 21.9 8 27 C7.67 25.68 7.34 24.36 7 23 C5.68 23 4.36 23 3 23 C3 21.68 3 20.36 3 19 C0.69 19 -1.62 19 -4 19 C-4 17.68 -4 16.36 -4 15 C-5.32 15 -6.64 15 -8 15 C-8 13.68 -8 12.36 -8 11 C-9.32 11 -10.64 11 -12 11 C-12 9.68 -12 8.36 -12 7 C-10.68 7 -9.36 7 -8 7 C-8 6.01 -8 5.02 -8 4 C-5.36 4 -2.72 4 0 4 C0 2.68 0 1.36 0 0 Z " fill="#1B1B1D" transform="translate(392,187)"/>
<path d="M0 0 C1.65 0 3.3 0 5 0 C5 1.65 5 3.3 5 5 C8.63 5 12.26 5 16 5 C16 10.61 16 16.22 16 22 C10.72 22 5.44 22 0 22 C0 14.74 0 7.48 0 0 Z " fill="#FBC7B3" transform="translate(221,295)"/>
<path d="M0 0 C1.32 0 2.64 0 4 0 C4 1.32 4 2.64 4 4 C5.32 4 6.64 4 8 4 C8 5.32 8 6.64 8 8 C10.31 8 12.62 8 15 8 C15 11.63 15 15.26 15 19 C13.68 19 12.36 19 11 19 C11 20.32 11 21.64 11 23 C10.01 23 9.02 23 8 23 C8 24.65 8 26.3 8 28 C5.36 28 2.72 28 0 28 C0 18.76 0 9.52 0 0 Z " fill="#1A191B" transform="translate(411,233)"/>
<path d="M0 0 C3.3 0 6.6 0 10 0 C10 1.98 10 3.96 10 6 C11.65 6 13.3 6 15 6 C15 9.3 15 12.6 15 16 C16.98 16 18.96 16 21 16 C21 17.98 21 19.96 21 22 C19.02 22 17.04 22 15 22 C15 23.65 15 25.3 15 27 C13.35 27 11.7 27 10 27 C10 25.35 10 23.7 10 22 C9.195625 22.020625 8.39125 22.04125 7.5625 22.0625 C5 22 5 22 4 21 C3.92680379 18.30345146 3.90757463 15.63308542 3.9375 12.9375 C3.94201172 12.17888672 3.94652344 11.42027344 3.95117188 10.63867188 C3.9629932 8.75908129 3.98092922 6.87953101 4 5 C2.68 5 1.36 5 0 5 C0 3.35 0 1.7 0 0 Z " fill="#000001" transform="translate(612,99)"/>
<path d="M0 0 C8.91 0 17.82 0 27 0 C26.67 1.65 26.34 3.3 26 5 C21.05 5 16.1 5 11 5 C11 6.65 11 8.3 11 10 C9.02 10 7.04 10 5 10 C5 13.3 5 16.6 5 20 C3.35 20 1.7 20 0 20 C0 16.7 0 13.4 0 10 C-3.3 10 -6.6 10 -10 10 C-10 8.35 -10 6.7 -10 5 C-6.7 5 -3.4 5 0 5 C0 3.35 0 1.7 0 0 Z " fill="#020102" transform="translate(283,149)"/>
<path d="M0 0 C0.6192524 10.7853126 0.6192524 10.7853126 -1.625 15.1875 C-4.44708004 17.34119266 -6.48954758 17.76065097 -10 18 C-10 17.34 -10 16.68 -10 16 C-10.5775 16.33 -11.155 16.66 -11.75 17 C-14 18 -14 18 -18 18 C-18.76872536 6.33245729 -18.76872536 6.33245729 -16.125 1.75 C-11.05844784 -1.08726921 -5.54617339 -1.84872446 0 0 Z " fill="#4A4C70" transform="translate(37,5)"/>
<path d="M0 0 C3.3 0 6.6 0 10 0 C10 3.63 10 7.26 10 11 C8.35 11 6.7 11 5 11 C5 12.65 5 14.3 5 16 C1.7 16 -1.6 16 -5 16 C-5 14.35 -5 12.7 -5 11 C-8.3 11 -11.6 11 -15 11 C-15 9.35 -15 7.7 -15 6 C-16.65 6 -18.3 6 -20 6 C-20 4.35 -20 2.7 -20 1 C-18.35 1 -16.7 1 -15 1 C-15 2.32 -15 3.64 -15 5 C-10.05 5 -5.1 5 0 5 C0 3.35 0 1.7 0 0 Z " fill="#65483D" transform="translate(593,343)"/>
<path d="M0 0 C1.32 0 2.64 0 4 0 C4 4.29 4 8.58 4 13 C2.68 13 1.36 13 0 13 C0 16.3 0 19.6 0 23 C2.97 23 5.94 23 9 23 C9 30.26 9 37.52 9 45 C7.35 45 5.7 45 4 45 C4 39.06 4 33.12 4 27 C1.03 27 -1.94 27 -5 27 C-5 21.06 -5 15.12 -5 9 C-3.35 9 -1.7 9 0 9 C0 6.03 0 3.06 0 0 Z " fill="#040101" transform="translate(334,316)"/>
<path d="M0 0 C1.65 0 3.3 0 5 0 C5 6.6 5 13.2 5 20 C3.02 20 1.04 20 -1 20 C-1 21.65 -1 23.3 -1 25 C-4.3 25 -7.6 25 -11 25 C-11 21.7 -11 18.4 -11 15 C-9.35 15 -7.7 15 -6 15 C-6 11.7 -6 8.4 -6 5 C-4.02 5 -2.04 5 0 5 C0 3.35 0 1.7 0 0 Z " fill="#6B6B6B" transform="translate(321,117)"/>
<path d="M0 0 C1.65 0 3.3 0 5 0 C5.911572 4.65191107 6.13429756 9.0753929 6.125 13.8125 C6.13080078 14.8324707 6.13080078 14.8324707 6.13671875 15.87304688 C6.12674825 20.87325175 6.12674825 20.87325175 5 22 C3.33382885 22.04063832 1.66611905 22.042721 0 22 C0 23.65 0 25.3 0 27 C-1.65 27 -3.3 27 -5 27 C-5 25.35 -5 23.7 -5 22 C-5.804375 22.020625 -6.60875 22.04125 -7.4375 22.0625 C-10 22 -10 22 -11 21 C-11.04063832 19.33382885 -11.042721 17.66611905 -11 16 C-9.02 16 -7.04 16 -5 16 C-5 12.7 -5 9.4 -5 6 C-3.35 6 -1.7 6 0 6 C0 4.02 0 2.04 0 0 Z " fill="#010101" transform="translate(551,99)"/>
<path d="M0 0 C1.65 0 3.3 0 5 0 C5 4.29 5 8.58 5 13 C3.35 13 1.7 13 0 13 C0 16.3 0 19.6 0 23 C-1.65 23 -3.3 23 -5 23 C-5 27.62 -5 32.24 -5 37 C-6.32 37 -7.64 37 -9 37 C-9 32.05 -9 27.1 -9 22 C-10.65 22 -12.3 22 -14 22 C-14 20.68 -14 19.36 -14 18 C-11.03 18 -8.06 18 -5 18 C-5 15.03 -5 12.06 -5 9 C-3.35 9 -1.7 9 0 9 C0 6.03 0 3.06 0 0 Z " fill="#040201" transform="translate(698,244)"/>
<path d="M0 0 C1.65 0 3.3 0 5 0 C5 2.97 5 5.94 5 9 C1.37 9 -2.26 9 -6 9 C-6 14.61 -6 20.22 -6 26 C-7.65 26 -9.3 26 -11 26 C-11 20.72 -11 15.44 -11 10 C-12.98 10 -14.96 10 -17 10 C-17 8.02 -17 6.04 -17 4 C-11.39 4 -5.78 4 0 4 C0 2.68 0 1.36 0 0 Z " fill="#0E0D0D" transform="translate(595,149)"/>
<path d="M0 0 C0 1.65 0 3.3 0 5 C-0.93972656 5.09087891 -0.93972656 5.09087891 -1.8984375 5.18359375 C-2.71570313 5.26738281 -3.53296875 5.35117187 -4.375 5.4375 C-5.18710937 5.51871094 -5.99921875 5.59992188 -6.8359375 5.68359375 C-9.04272805 5.89090114 -9.04272805 5.89090114 -11 7 C-11.73075648 9.3140622 -12.40138258 11.64828869 -13 14 C-11.68 14 -10.36 14 -9 14 C-9 15.65 -9 17.3 -9 19 C-11.97 19 -14.94 19 -18 19 C-18 14.71 -18 10.42 -18 6 C-20.97 5.67 -23.94 5.34 -27 5 C-27 3.68 -27 2.36 -27 1 C-18.02243049 -0.3300103 -9.05168034 -0.08788039 0 0 Z " fill="#442F2A" transform="translate(375,315)"/>
<path d="M0 0 C1.65 0 3.3 0 5 0 C5.33 1.65 5.66 3.3 6 5 C7.32 5.33 8.64 5.66 10 6 C10 10.95 10 15.9 10 21 C8.35 21 6.7 21 5 21 C5 22.65 5 24.3 5 26 C3.35 26 1.7 26 0 26 C0 17.42 0 8.84 0 0 Z " fill="#EB3E35" transform="translate(573,72)"/>
<path d="M0 0 C1.65 0 3.3 0 5 0 C5 3.3 5 6.6 5 10 C6.65 10 8.3 10 10 10 C10 11.65 10 13.3 10 15 C8.35 15 6.7 15 5 15 C5 18.3 5 21.6 5 25 C1.7 25 -1.6 25 -5 25 C-5 21.7 -5 18.4 -5 15 C-3.35 15 -1.7 15 0 15 C0 10.05 0 5.1 0 0 Z " fill="#939393" transform="translate(598,308)"/>
<path d="M0 0 C3.63 0 7.26 0 11 0 C11 1.65 11 3.3 11 5 C19.91 5 28.82 5 38 5 C38 5.33 38 5.66 38 6 C29.09 6 20.18 6 11 6 C11 7.65 11 9.3 11 11 C7.7 11 4.4 11 1 11 C1 12.65 1 14.3 1 16 C0.67 16 0.34 16 0 16 C0 14.35 0 12.7 0 11 C-1.65 11 -3.3 11 -5 11 C-5 9.02 -5 7.04 -5 5 C-3.35 5 -1.7 5 0 5 C0 3.35 0 1.7 0 0 Z " fill="#423630" transform="translate(272,143)"/>
<path d="M0 0 C1.32 0 2.64 0 4 0 C4 2.97 4 5.94 4 9 C5.65 9 7.3 9 9 9 C9 7.68 9 6.36 9 5 C10.65 5 12.3 5 14 5 C14 7.97 14 10.94 14 14 C12.68 14 11.36 14 10 14 C10 15.32 10 16.64 10 18 C11.32 18.33 12.64 18.66 14 19 C14 21.97 14 24.94 14 28 C13.67 26.68 13.34 25.36 13 24 C11.68 24 10.36 24 9 24 C9 20.37 9 16.74 9 13 C10.32 13 11.64 13 13 13 C13 10.69 13 8.38 13 6 C12.01 6 11.02 6 10 6 C10 7.32 10 8.64 10 10 C6.7 10 3.4 10 0 10 C0 11.32 0 12.64 0 14 C-1.65 14 -3.3 14 -5 14 C-5 12.68 -5 11.36 -5 10 C-6.65 10 -8.3 10 -10 10 C-10 8.35 -10 6.7 -10 5 C-6.7 5 -3.4 5 0 5 C0 3.35 0 1.7 0 0 Z " fill="#374491" transform="translate(651,224)"/>
<path d="M0 0 C0.33 0 0.66 0 1 0 C1 1.65 1 3.3 1 5 C2.65 5.33 4.3 5.66 6 6 C6 7.65 6 9.3 6 11 C7.65 11 9.3 11 11 11 C11 14.63 11 18.26 11 22 C7.37 22 3.74 22 0 22 C0 14.74 0 7.48 0 0 Z " fill="#FD8D01" transform="translate(676,257)"/>
<path d="M0 0 C1.32 0 2.64 0 4 0 C4 1.32 4 2.64 4 4 C5.65 4 7.3 4 9 4 C9 11.92 9 19.84 9 28 C7.35 27.67 5.7 27.34 4 27 C4 21.06 4 15.12 4 9 C2.68 9 1.36 9 0 9 C0 6.03 0 3.06 0 0 Z " fill="#060201" transform="translate(665,253)"/>
<path d="M0 0 C6.93 0 13.86 0 21 0 C21 1.98 21 3.96 21 6 C19.68 6 18.36 6 17 6 C17 7.32 17 8.64 17 10 C16.01 10 15.02 10 14 10 C14 7.36 14 4.72 14 2 C11.03 2 8.06 2 5 2 C5 17.51 5 33.02 5 49 C4.67 49 4.34 49 4 49 C3.34 33.82 2.68 18.64 2 3 C1.34 2.67 0.68 2.34 0 2 C0 1.34 0 0.68 0 0 Z " fill="#09090B" transform="translate(502,223)"/>
<path d="M0 0 C5.61 0 11.22 0 17 0 C17 1.32 17 2.64 17 4 C16.01 4.33 15.02 4.66 14 5 C13.67 7.64 13.34 10.28 13 13 C12.01 13 11.02 13 10 13 C9.67 11.68 9.34 10.36 9 9 C4.71 8.67 0.42 8.34 -4 8 C-4 7.34 -4 6.68 -4 6 C-2.68 6 -1.36 6 0 6 C0 4.02 0 2.04 0 0 Z " fill="#F78E09" transform="translate(675,215)"/>
<path d="M0 0 C3.96 0 7.92 0 12 0 C12 1.32 12 2.64 12 4 C13.32 4 14.64 4 16 4 C16 5.32 16 6.64 16 8 C13.36 8 10.72 8 8 8 C8 9.32 8 10.64 8 12 C5.36 12 2.72 12 0 12 C0 8.04 0 4.08 0 0 Z " fill="#222223" transform="translate(372,175)"/>
<path d="M0 0 C0.33 0 0.66 0 1 0 C1 3.3 1 6.6 1 10 C-0.65 10 -2.3 10 -4 10 C-4 12.97 -4 15.94 -4 19 C-8.62 19 -13.24 19 -18 19 C-18 17.35 -18 15.7 -18 14 C-16.35 14 -14.7 14 -13 14 C-13 15.32 -13 16.64 -13 18 C-10.36 18 -7.72 18 -5 18 C-5 15.36 -5 12.72 -5 10 C-9.29 10 -13.58 10 -18 10 C-18 8.02 -18 6.04 -18 4 C-13.38 4 -8.76 4 -4 4 C-4 5.65 -4 7.3 -4 9 C-2.68 9 -1.36 9 0 9 C0 6.03 0 3.06 0 0 Z " fill="#A0601E" transform="translate(697,243)"/>
<path d="M0 0 C1.32 0 2.64 0 4 0 C4 1.98 4 3.96 4 6 C5.98 5.67 7.96 5.34 10 5 C10.33 3.35 10.66 1.7 11 0 C11.99 0 12.98 0 14 0 C14.33 3.3 14.66 6.6 15 10 C8.07 10 1.14 10 -6 10 C-6 8.35 -6 6.7 -6 5 C-4.02 5 -2.04 5 0 5 C0 3.35 0 1.7 0 0 Z " fill="#674A43" transform="translate(268,170)"/>
<path d="M0 0 C0.99 0.66 1.98 1.32 3 2 C3 1.34 3 0.68 3 0 C3.66 0 4.32 0 5 0 C3.52417325 5.247384 -0.00827156 9.39565449 -4 13 C-6.1015625 13.859375 -6.1015625 13.859375 -8 14 C-10 12 -10 12 -10.375 8.125 C-10.28707416 5.10254931 -10.07715786 4.1187044 -8.375 1.5 C-5.33326715 -0.42109443 -3.53950857 -0.45185216 0 0 Z " fill="#11111C" transform="translate(31,6)"/>
<path d="M0 0 C1.65 0 3.3 0 5 0 C5 5.28 5 10.56 5 16 C3.35 16 1.7 16 0 16 C0 14.35 0 12.7 0 11 C-3.3 11 -6.6 11 -10 11 C-10 12.65 -10 14.3 -10 16 C-11 17 -11 17 -13.5625 17.0625 C-14.366875 17.041875 -15.17125 17.02125 -16 17 C-16 15.02 -16 13.04 -16 11 C-17.98 11 -19.96 11 -22 11 C-22.042721 9.33388095 -22.04063832 7.66617115 -22 6 C-21 5 -21 5 -17.9375 4.9375 C-16.4834375 4.9684375 -16.4834375 4.9684375 -15 5 C-15 6.32 -15 7.64 -15 9 C-14.34773438 8.98839844 -13.69546875 8.97679688 -13.0234375 8.96484375 C-8.2238086 8.91529006 -3.72215315 9.00586249 1 10 C1 11.65 1 13.3 1 15 C1.99 15 2.98 15 4 15 C4 10.38 4 5.76 4 1 C2.68 0.67 1.36 0.34 0 0 Z " fill="#AB403B" transform="translate(310,100)"/>
<path d="M0 0 C2.64 0 5.28 0 8 0 C8 2.64 8 5.28 8 8 C6.68 8 5.36 8 4 8 C4 9.32 4 10.64 4 12 C2.68 12 1.36 12 0 12 C0 13.32 0 14.64 0 16 C-1.32 16 -2.64 16 -4 16 C-4 12.04 -4 8.08 -4 4 C-2.68 4 -1.36 4 0 4 C0 2.68 0 1.36 0 0 Z " fill="#202021" transform="translate(434,171)"/>
<path d="M0 0 C2.31 0 4.62 0 7 0 C7 1.65 7 3.3 7 5 C8.98 5 10.96 5 13 5 C13 7.31 13 9.62 13 12 C14.134375 11.979375 15.26875 11.95875 16.4375 11.9375 C20 12 20 12 21 13 C21.07271741 15.35313555 21.08370868 17.70833668 21.0625 20.0625 C21.05347656 21.35285156 21.04445313 22.64320313 21.03515625 23.97265625 C21.02355469 24.97167969 21.01195312 25.97070312 21 27 C18.13822943 28.43088528 16.06624227 27.59991697 13 27 C13 28.98 13 30.96 13 33 C12.67 33 12.34 33 12 33 C12 30.69 12 28.38 12 26 C14.31 26 16.62 26 19 26 C19 21.71 19 17.42 19 13 C16.69 13 14.38 13 12 13 C12 11.02 12 9.04 12 7 C5.73 7 -0.54 7 -7 7 C-7 6.67 -7 6.34 -7 6 C-4.69 6 -2.38 6 0 6 C0 4.02 0 2.04 0 0 Z " fill="#410E0C" transform="translate(528,164)"/>
<path d="M0 0 C1.65 0 3.3 0 5 0 C6 1 6 1 6.11352539 2.85766602 C6.10828857 3.64842529 6.10305176 4.43918457 6.09765625 5.25390625 C6.09443359 6.10791016 6.09121094 6.96191406 6.08789062 7.84179688 C6.07951172 8.73962891 6.07113281 9.63746094 6.0625 10.5625 C6.05798828 11.46419922 6.05347656 12.36589844 6.04882812 13.29492188 C6.03700225 15.53001314 6.0205222 17.76497437 6 20 C4.02 20 2.04 20 0 20 C0 13.4 0 6.8 0 0 Z " fill="#622FA9" transform="translate(237,226)"/>
<path d="M0 0 C1.65 0 3.3 0 5 0 C5.33 3.3 5.66 6.6 6 10 C7.98 10 9.96 10 12 10 C12 20.23 12 30.46 12 41 C12.99 41 13.98 41 15 41 C15.33 39.68 15.66 38.36 16 37 C16 38.65 16 40.3 16 42 C10.555 42.495 10.555 42.495 5 43 C5 41.02 5 39.04 5 37 C6.98 37 8.96 37 11 37 C11 28.42 11 19.84 11 11 C9.02 11 7.04 11 5 11 C5 9.35 5 7.7 5 6 C3.35 6 1.7 6 0 6 C0 4.02 0 2.04 0 0 Z " fill="#473C47" transform="translate(251,127)"/>
<path d="M0 0 C4.29 0 8.58 0 13 0 C13 3.96 13 7.92 13 12 C11.02 12 9.04 12 7 12 C7 10.02 7 8.04 7 6 C4.69 6 2.38 6 0 6 C0 4.02 0 2.04 0 0 Z " fill="#FDF7F6" transform="translate(521,171)"/>
<path d="M0 0 C9.24 0 18.48 0 28 0 C28 1.32 28 2.64 28 4 C18.76 4 9.52 4 0 4 C0 2.68 0 1.36 0 0 Z " fill="#E98D1D" transform="translate(338,362)"/>
<path d="M0 0 C3.3 0 6.6 0 10 0 C10 1.32 10 2.64 10 4 C13.3 4 16.6 4 20 4 C20 5.65 20 7.3 20 9 C15.05 9 10.1 9 5 9 C4.67 7.35 4.34 5.7 4 4 C2.68 3.67 1.36 3.34 0 3 C0 2.01 0 1.02 0 0 Z " fill="#010101" transform="translate(578,355)"/>
<path d="M0 0 C0.33 0 0.66 0 1 0 C1 3.3 1 6.6 1 10 C-6.26 10 -13.52 10 -21 10 C-20.67 8.35 -20.34 6.7 -20 5 C-13.4 5 -6.8 5 0 5 C0 3.35 0 1.7 0 0 Z " fill="#5D31A0" transform="translate(279,242)"/>
<path d="M0 0 C0.33 0 0.66 0 1 0 C1.33 1.65 1.66 3.3 2 5 C2.33 5 2.66 5 3 5 C3.38133299 6.9914056 3.71325582 8.99279077 4 11 C3.67 11.33 3.34 11.66 3 12 C3.66 12.66 4.32 13.32 5 14 C5.125 17.125 5.125 17.125 5 20 C3.02 20 1.04 20 -1 20 C-1 18.35 -1 16.7 -1 15 C-1.99 15.33 -2.98 15.66 -4 16 C-4 12.37 -4 8.74 -4 5 C-2.68 5 -1.36 5 0 5 C0 3.35 0 1.7 0 0 Z M-9 16 C-7.35 16 -5.7 16 -4 16 C-4.66 16.66 -5.32 17.32 -6 18 C-6.99 17.34 -7.98 16.68 -9 16 Z " fill="#90908E" transform="translate(693,214)"/>
<path d="M0 0 C7.26 0 14.52 0 22 0 C22 1.65 22 3.3 22 5 C14.74 5 7.48 5 0 5 C0 3.35 0 1.7 0 0 Z " fill="#F5F3F0" transform="translate(288,143)"/>
<path d="M0 0 C6.93 0 13.86 0 21 0 C21 0.33 21 0.66 21 1 C19.35 1 17.7 1 16 1 C16 2.32 16 3.64 16 5 C14.35 5 12.7 5 11 5 C11 8.63 11 12.26 11 16 C9.35 16 7.7 16 6 16 C7.32 15.67 8.64 15.34 10 15 C10 12.03 10 9.06 10 6 C7.8034375 6.0309375 7.8034375 6.0309375 5.5625 6.0625 C4.04167482 6.08392007 2.51928038 6.07179964 1 6 C0.67 5.67 0.34 5.34 0 5 C0 3.35 0 1.7 0 0 Z " fill="#5A4941" transform="translate(557,338)"/>
<path d="M0 0 C0.99 0 1.98 0 3 0 C3 2.31 3 4.62 3 7 C1.68 7 0.36 7 -1 7 C-1 10.63 -1 14.26 -1 18 C0.32 18 1.64 18 3 18 C3 19.32 3 20.64 3 22 C0.36 22 -2.28 22 -5 22 C-5 16.39 -5 10.78 -5 5 C-3.68 4.67 -2.36 4.34 -1 4 C-0.67 2.68 -0.34 1.36 0 0 Z " fill="#000001" transform="translate(661,230)"/>
<path d="M0 0 C5.61 0 11.22 0 17 0 C17 1.65 17 3.3 17 5 C18.65 5 20.3 5 22 5 C22 5.33 22 5.66 22 6 C14.74 6 7.48 6 0 6 C0 4.02 0 2.04 0 0 Z " fill="#D77878" transform="translate(578,142)"/>
<path d="M0 0 C0.33 0 0.66 0 1 0 C1 8.58 1 17.16 1 26 C-0.65 26 -2.3 26 -4 26 C-4 19.4 -4 12.8 -4 6 C-2.68 6 -1.36 6 0 6 C0 4.02 0 2.04 0 0 Z " fill="#6030A3" transform="translate(252,226)"/>
<path d="M0 0 C1.98 0 3.96 0 6 0 C6 6.6 6 13.2 6 20 C4.35 20 2.7 20 1 20 C0.67 13.4 0.34 6.8 0 0 Z " fill="#5F31A7" transform="translate(215,226)"/>
<path d="M0 0 C2.64590014 -0.02684679 5.29153096 -0.04676357 7.9375 -0.0625 C8.69224609 -0.07087891 9.44699219 -0.07925781 10.22460938 -0.08789062 C12.14994313 -0.09652441 14.07535581 -0.05224333 16 0 C17 1 17 1 17 6 C11.39 6 5.78 6 0 6 C0 4.02 0 2.04 0 0 Z " fill="#CB8B76" transform="translate(226,279)"/>
<path d="M0 0 C9.24 0 18.48 0 28 0 C28 0.33 28 0.66 28 1 C26.35 1 24.7 1 23 1 C23 2.32 23 3.64 23 5 C17.06 5 11.12 5 5 5 C5 3.68 5 2.36 5 1 C3.35 1 1.7 1 0 1 C0 0.67 0 0.34 0 0 Z " fill="#422614" transform="translate(338,366)"/>
<path d="M0 0 C1.65 0 3.3 0 5 0 C5 6.6 5 13.2 5 20 C3.35 20 1.7 20 0 20 C0 13.4 0 6.8 0 0 Z " fill="#020202" transform="translate(547,349)"/>
<path d="M0 0 C1.98 0 3.96 0 6 0 C6.33 1.65 6.66 3.3 7 5 C7.66 5 8.32 5 9 5 C9.33 3.35 9.66 1.7 10 0 C11.98 0 13.96 0 16 0 C16 2.31 16 4.62 16 7 C17.65 7 19.3 7 21 7 C21 8.65 21 10.3 21 12 C19.02 12 17.04 12 15 12 C15 10.35 15 8.7 15 7 C14.01 7 13.02 7 12 7 C12 8.65 12 10.3 12 12 C11.67 12 11.34 12 11 12 C11 10.35 11 8.7 11 7 C9.35 6.67 7.7 6.34 6 6 C5.67 4.68 5.34 3.36 5 2 C3.35 1.67 1.7 1.34 0 1 C0 0.67 0 0.34 0 0 Z " fill="#5D4A5C" transform="translate(267,163)"/>
<path d="M0 0 C5.28 0 10.56 0 16 0 C16 1.65 16 3.3 16 5 C15.67 3.68 15.34 2.36 15 1 C13.35 1.33 11.7 1.66 10 2 C10 9.92 10 17.84 10 26 C8.68 26 7.36 26 6 26 C6 17.75 6 9.5 6 1 C4.02 1 2.04 1 0 1 C0 0.67 0 0.34 0 0 Z " fill="#582D9A" transform="translate(221,220)"/>
<path d="M0 0 C3.63 0 7.26 0 11 0 C11 3.63 11 7.26 11 11 C9.02 11 7.04 11 5 11 C5 9.35 5 7.7 5 6 C3.35 6 1.7 6 0 6 C0 4.02 0 2.04 0 0 Z " fill="#D56E71" transform="translate(215,247)"/>
<path d="M0 0 C3.63 0 7.26 0 11 0 C11 1.98 11 3.96 11 6 C9.35 6 7.7 6 6 6 C6 7.65 6 9.3 6 11 C4.02 11 2.04 11 0 11 C0 7.37 0 3.74 0 0 Z " fill="#CD6C6B" transform="translate(589,115)"/>
<path d="M0 0 C3.63 0 7.26 0 11 0 C11 1.98 11 3.96 11 6 C9.35 6 7.7 6 6 6 C6 7.65 6 9.3 6 11 C4.02 11 2.04 11 0 11 C0 7.37 0 3.74 0 0 Z " fill="#C66B6B" transform="translate(573,115)"/>
<path d="M0 0 C1.65 0 3.3 0 5 0 C3.68 0.33 2.36 0.66 1 1 C1 7.27 1 13.54 1 20 C5.29 20 9.58 20 14 20 C14 15.71 14 11.42 14 7 C11.03 6.67 8.06 6.34 5 6 C5 5.67 5 5.34 5 5 C8.63 5 12.26 5 16 5 C16 10.61 16 16.22 16 22 C10.72 22 5.44 22 0 22 C0 14.74 0 7.48 0 0 Z " fill="#CCAB9E" transform="translate(221,295)"/>
<path d="M0 0 C6.27 0 12.54 0 19 0 C19 1.65 19 3.3 19 5 C18.67 3.68 18.34 2.36 18 1 C12.39 1 6.78 1 1 1 C1 2.98 1 4.96 1 7 C-0.32 7 -1.64 7 -3 7 C-3 7.66 -3 8.32 -3 9 C1.29 9 5.58 9 10 9 C10.33 10.65 10.66 12.3 11 14 C11.99 14 12.98 14 14 14 C14 11.36 14 8.72 14 6 C14.33 6 14.66 6 15 6 C15 9.3 15 12.6 15 16 C13.02 16 11.04 16 9 16 C8.67 14.35 8.34 12.7 8 11 C4.04 11 0.08 11 -4 11 C-4 9.35 -4 7.7 -4 6 C-2.68 6 -1.36 6 0 6 C0 4.02 0 2.04 0 0 Z " fill="#C6883C" transform="translate(674,214)"/>
<path d="M0 0 C3.63 0 7.26 0 11 0 C11 3.63 11 7.26 11 11 C9.02 11 7.04 11 5 11 C5 9.02 5 7.04 5 5 C3.35 5 1.7 5 0 5 C0 3.35 0 1.7 0 0 Z " fill="#D06473" transform="translate(237,247)"/>
<path d="M0 0 C1.98 0 3.96 0 6 0 C6 0.33 6 0.66 6 1 C4.35 1 2.7 1 1 1 C1 2.65 1 4.3 1 6 C-9.89 6 -20.78 6 -32 6 C-32 7.65 -32 9.3 -32 11 C-33.65 11 -35.3 11 -37 11 C-37 9.35 -37 7.7 -37 6 C-40.3 6 -43.6 6 -47 6 C-47 5.67 -47 5.34 -47 5 C-31.49 5 -15.98 5 0 5 C0 3.35 0 1.7 0 0 Z " fill="#4A433F" transform="translate(320,137)"/>
<path d="M0 0 C1.32 0 2.64 0 4 0 C4 1.65 4 3.3 4 5 C5.65 5 7.3 5 9 5 C9 8.3 9 11.6 9 15 C7.68 15 6.36 15 5 15 C4.67 13.35 4.34 11.7 4 10 C2.68 9.67 1.36 9.34 0 9 C0 6.03 0 3.06 0 0 Z " fill="#000001" transform="translate(254,226)"/>
<path d="M0 0 C3.63 0 7.26 0 11 0 C11 3.3 11 6.6 11 10 C9.35 10 7.7 10 6 10 C6 8.35 6 6.7 6 5 C4.02 5 2.04 5 0 5 C0 3.35 0 1.7 0 0 Z " fill="#624539" transform="translate(552,318)"/>
<path d="M0 0 C5.28 0 10.56 0 16 0 C16 1.65 16 3.3 16 5 C10.72 5 5.44 5 0 5 C0 3.35 0 1.7 0 0 Z " fill="#030105" transform="translate(237,220)"/>
<path d="M0 0 C3.3 0 6.6 0 10 0 C10 1.65 10 3.3 10 5 C8.35 5 6.7 5 5 5 C5 6.98 5 8.96 5 11 C3.35 11 1.7 11 0 11 C0 7.37 0 3.74 0 0 Z " fill="#D33E35" transform="translate(241,106)"/>
<path d="M0 0 C0.33 0 0.66 0 1 0 C1.33 2.64 1.66 5.28 2 8 C6.29 8.33 10.58 8.66 15 9 C15 7.35 15 5.7 15 4 C16.65 4 18.3 4 20 4 C20 7.3 20 10.6 20 14 C18.02 14 16.04 14 14 14 C14 12.68 14 11.36 14 10 C9.38 10 4.76 10 0 10 C0 6.7 0 3.4 0 0 Z " fill="#A37032" transform="translate(669,229)"/>
<path d="M0 0 C1.98 0 3.96 0 6 0 C6 8.91 6 17.82 6 27 C7.65 27 9.3 27 11 27 C11 29.31 11 31.62 11 34 C9.02 34 7.04 34 5 34 C5 32.02 5 30.04 5 28 C3.35 28 1.7 28 0 28 C0 27.67 0 27.34 0 27 C1.65 27 3.3 27 5 27 C5 18.42 5 9.84 5 1 C3.35 1 1.7 1 0 1 C0 0.67 0 0.34 0 0 Z " fill="#6A351F" transform="translate(600,71)"/>
<path d="M0 0 C4.62 0 9.24 0 14 0 C13.67 0.99 13.34 1.98 13 3 C10.36 3.33 7.72 3.66 5 4 C5 5.65 5 7.3 5 9 C3.35 9 1.7 9 0 9 C0 6.03 0 3.06 0 0 Z " fill="#8C8F9D" transform="translate(655,224)"/>
<path d="M0 0 C1.32 0 2.64 0 4 0 C4 6.27 4 12.54 4 19 C2.68 19 1.36 19 0 19 C0 12.73 0 6.46 0 0 Z " fill="#010203" transform="translate(703,224)"/>
<path d="M0 0 C3.3 0 6.6 0 10 0 C10 3.3 10 6.6 10 10 C8.35 10 6.7 10 5 10 C5 8.35 5 6.7 5 5 C3.35 5 1.7 5 0 5 C0 3.35 0 1.7 0 0 Z " fill="#5F4237" transform="translate(568,318)"/>
<path d="M0 0 C0.99 0 1.98 0 3 0 C3 7.92 3 15.84 3 24 C2.01 24 1.02 24 0 24 C0 16.08 0 8.16 0 0 Z " fill="#8F23A4" transform="translate(233,221)"/>
<path d="M0 0 C3.3 0 6.6 0 10 0 C10 1.65 10 3.3 10 5 C8.02 5 6.04 5 4 5 C4 6.65 4 8.3 4 10 C2.68 10 1.36 10 0 10 C0 6.7 0 3.4 0 0 Z " fill="#010102" transform="translate(210,220)"/>
<path d="M0 0 C1.65 0 3.3 0 5 0 C5 4.62 5 9.24 5 14 C3.35 14 1.7 14 0 14 C0 9.38 0 4.76 0 0 Z " fill="#121214" transform="translate(557,106)"/>
<path d="M0 0 C0.66 0 1.32 0 2 0 C2.33 7.92 2.66 15.84 3 24 C1.68 24 0.36 24 -1 24 C-1.02909763 20.75001888 -1.04683161 17.50007143 -1.0625 14.25 C-1.07087891 13.32960937 -1.07925781 12.40921875 -1.08789062 11.4609375 C-1.09111328 10.57148438 -1.09433594 9.68203125 -1.09765625 8.765625 C-1.10289307 7.94868164 -1.10812988 7.13173828 -1.11352539 6.29003906 C-1.00299021 4.06031865 -0.62055567 2.13866245 0 0 Z " fill="#8E22A4" transform="translate(223,222)"/>
<path d="M0 0 C2.0307416 0.5076854 4.01893549 1.00650907 6 1.6875 C8.58916878 2.09205762 9.80260379 1.33413341 12 0 C12.12375 1.175625 12.12375 1.175625 12.25 2.375 C12.72806339 5.14749104 12.72806339 5.14749104 15.0625 6.3125 C15.701875 6.539375 16.34125 6.76625 17 7 C14.36 7.33 11.72 7.66 9 8 C9 6.68 9 5.36 9 4 C6.56282742 4.27034634 6.56282742 4.27034634 4 5 C3.01 6.485 3.01 6.485 2 8 C-0.64 7.67 -3.28 7.34 -6 7 C-6 6.67 -6 6.34 -6 6 C-4.35 5.67 -2.7 5.34 -1 5 C-0.67 3.35 -0.34 1.7 0 0 Z " fill="#989797" transform="translate(680,229)"/>
<path d="M0 0 C5.28 0 10.56 0 16 0 C16 1.32 16 2.64 16 4 C10.72 4 5.44 4 0 4 C0 2.68 0 1.36 0 0 Z " fill="#010102" transform="translate(221,215)"/>
<path d="M0 0 C1.32 0 2.64 0 4 0 C4 4.62 4 9.24 4 14 C2.35 14 0.7 14 -1 14 C-0.67 9.38 -0.34 4.76 0 0 Z " fill="#8B24A3" transform="translate(211,232)"/>
<path d="M0 0 C0.66 0 1.32 0 2 0 C2 1.65 2 3.3 2 5 C2.804375 4.979375 3.60875 4.95875 4.4375 4.9375 C7 5 7 5 8 6 C8.04080783 7.99958364 8.04254356 10.00045254 8 12 C11.63 12 15.26 12 19 12 C19 10.35 19 8.7 19 7 C19.33 7 19.66 7 20 7 C20 9.31 20 11.62 20 14 C15.71 14 11.42 14 7 14 C7 11.69 7 9.38 7 7 C4.69 7 2.38 7 0 7 C0 4.69 0 2.38 0 0 Z " fill="#B03730" transform="translate(501,203)"/>
<path d="M0 0 C3.63 0 7.26 0 11 0 C11 0.33 11 0.66 11 1 C7.7 1 4.4 1 1 1 C1 2.32 1 3.64 1 5 C2.65 5 4.3 5 6 5 C6 6.98 6 8.96 6 11 C4.02 11 2.04 11 0 11 C0 9.35 0 7.7 0 6 C-3.3 6 -6.6 6 -10 6 C-10 5.67 -10 5.34 -10 5 C-6.7 5 -3.4 5 0 5 C0 3.35 0 1.7 0 0 Z " fill="#621C18" transform="translate(272,73)"/>
<path d="M0 0 C2.64 0 5.28 0 8 0 C8 1.32 8 2.64 8 4 C6.02 4 4.04 4 2 4 C2 8.62 2 13.24 2 18 C1.34 18 0.68 18 0 18 C0 12.06 0 6.12 0 0 Z " fill="#8F24A4" transform="translate(244,227)"/>
<path d="M0 0 C1.98 0 3.96 0 6 0 C6 3.3 6 6.6 6 10 C4.35 10 2.7 10 1 10 C0 9 0 9 -0.09765625 6.93359375 C-0.08605469 6.10988281 -0.07445312 5.28617188 -0.0625 4.4375 C-0.05347656 3.61121094 -0.04445312 2.78492188 -0.03515625 1.93359375 C-0.02355469 1.29550781 -0.01195312 0.65742188 0 0 Z " fill="#010105" transform="translate(256,170)"/>
<path d="M0 0 C1.65 0 3.3 0 5 0 C5 2.97 5 5.94 5 9 C3.68 9 2.36 9 1 9 C1 10.32 1 11.64 1 13 C2.98 13.495 2.98 13.495 5 14 C5 16.97 5 19.94 5 23 C4.67 21.68 4.34 20.36 4 19 C2.68 19 1.36 19 0 19 C0 15.37 0 11.74 0 8 C1.32 8 2.64 8 4 8 C4 5.69 4 3.38 4 1 C3.01 1 2.02 1 1 1 C0.67 2.32 0.34 3.64 0 5 C0 3.35 0 1.7 0 0 Z " fill="#563E3B" transform="translate(660,229)"/>
<path d="M0 0 C0.33 0 0.66 0 1 0 C1 3.63 1 7.26 1 11 C-6.26 11 -13.52 11 -21 11 C-21 9.02 -21 7.04 -21 5 C-19.35 5 -17.7 5 -16 5 C-16 6.65 -16 8.3 -16 10 C-10.72 10 -5.44 10 0 10 C0 6.7 0 3.4 0 0 Z " fill="#2F221D" transform="translate(299,127)"/>
<path d="M0 0 C0.66 0 1.32 0 2 0 C2 5.28 2 10.56 2 16 C-1.63 16 -5.26 16 -9 16 C-9 13.36 -9 10.72 -9 8 C-8.67 8 -8.34 8 -8 8 C-8 9.98 -8 11.96 -8 14 C-5.36 14 -2.72 14 0 14 C0 9.38 0 4.76 0 0 Z " fill="#E4DCDC" transform="translate(582,159)"/>
<path d="M0 0 C3.63 0 7.26 0 11 0 C11 1.65 11 3.3 11 5 C7.37 5 3.74 5 0 5 C0 3.35 0 1.7 0 0 Z " fill="#D72052" transform="translate(584,83)"/>
<path d="M0 0 C0.66 0 1.32 0 2 0 C2 2.97 2 5.94 2 9 C2.66 9 3.32 9 4 9 C4.33 7.35 4.66 5.7 5 4 C7.31 4 9.62 4 12 4 C12 5.98 12 7.96 12 10 C13.32 10.33 14.64 10.66 16 11 C14.35 11 12.7 11 11 11 C11 9.35 11 7.7 11 6 C9.02 6 7.04 6 5 6 C5 7.65 5 9.3 5 11 C3.35 11 1.7 11 0 11 C0 7.37 0 3.74 0 0 Z " fill="#3D0E0D" transform="translate(283,73)"/>
<path d="M0 0 C1.65 0 3.3 0 5 0 C5 1.32 5 2.64 5 4 C6.32 4 7.64 4 9 4 C9 2.68 9 1.36 9 0 C10.65 0 12.3 0 14 0 C14 1.65 14 3.3 14 5 C9.38 5 4.76 5 0 5 C0 3.35 0 1.7 0 0 Z " fill="#3C4085" transform="translate(343,311)"/>
<path d="M0 0 C1.51400391 0.01740234 1.51400391 0.01740234 3.05859375 0.03515625 C4.07050781 0.04417969 5.08242188 0.05320312 6.125 0.0625 C7.29869141 0.07990234 7.29869141 0.07990234 8.49609375 0.09765625 C8.49609375 0.75765625 8.49609375 1.41765625 8.49609375 2.09765625 C7.83609375 2.09765625 7.17609375 2.09765625 6.49609375 2.09765625 C6.49609375 4.07765625 6.49609375 6.05765625 6.49609375 8.09765625 C5.83609375 8.09765625 5.17609375 8.09765625 4.49609375 8.09765625 C4.49609375 6.11765625 4.49609375 4.13765625 4.49609375 2.09765625 C3.50609375 2.42765625 2.51609375 2.75765625 1.49609375 3.09765625 C1.49609375 3.75765625 1.49609375 4.41765625 1.49609375 5.09765625 C0.50609375 5.09765625 -0.48390625 5.09765625 -1.50390625 5.09765625 C-1.50390625 6.08765625 -1.50390625 7.07765625 -1.50390625 8.09765625 C-2.16390625 8.09765625 -2.82390625 8.09765625 -3.50390625 8.09765625 C-3.54632348 5.7647085 -3.54483562 3.43063058 -3.50390625 1.09765625 C-2.50390625 0.09765625 -2.50390625 0.09765625 0 0 Z " fill="#404248" transform="translate(881.50390625,9.90234375)"/>
<path d="M0 0 C1.32 0 2.64 0 4 0 C4 2.64 4 5.28 4 8 C1.03 8 -1.94 8 -5 8 C-5 6.68 -5 5.36 -5 4 C-3.35 4 -1.7 4 0 4 C0 2.68 0 1.36 0 0 Z " fill="#567285" transform="translate(656,206)"/>
<path d="M0 0 C3.3 0 6.6 0 10 0 C10 1.65 10 3.3 10 5 C6.7 5 3.4 5 0 5 C0 3.35 0 1.7 0 0 Z " fill="#0C0907" transform="translate(563,328)"/>
<path d="M0 0 C3.3 0 6.6 0 10 0 C10 1.65 10 3.3 10 5 C6.7 5 3.4 5 0 5 C0 3.35 0 1.7 0 0 Z " fill="#060101" transform="translate(273,143)"/>
<path d="M0 0 C1.98 0 3.96 0 6 0 C6 2.31 6 4.62 6 7 C1.71 7 -2.58 7 -7 7 C-7 6.67 -7 6.34 -7 6 C-4.69 6 -2.38 6 0 6 C0 4.02 0 2.04 0 0 Z " fill="#CF544D" transform="translate(528,164)"/>
<path d="M0 0 C4.75 0.75 4.75 0.75 7 3 C7.33 3 7.66 3 8 3 C8 4.65 8 6.3 8 8 C5.33333333 8 2.66666667 8 0 8 C0 5.36 0 2.72 0 0 Z " fill="#383A3F" transform="translate(765,10)"/>
<path d="M0 0 C1.98 0 3.96 0 6 0 C6 0.33 6 0.66 6 1 C4.35 1 2.7 1 1 1 C1 2.32 1 3.64 1 5 C2.65 5 4.3 5 6 5 C6 6.98 6 8.96 6 11 C4.02 11 2.04 11 0 11 C0 7.37 0 3.74 0 0 Z " fill="#7B3976" transform="translate(204,263)"/>
<path d="M0 0 C2.97 0 5.94 0 9 0 C9 1.65 9 3.3 9 5 C6.03 5 3.06 5 0 5 C0 3.35 0 1.7 0 0 Z " fill="#2F211E" transform="translate(357,343)"/>
<path d="M0 0 C1.62463842 -0.05395478 3.24978541 -0.09277195 4.875 -0.125 C6.23238281 -0.15980469 6.23238281 -0.15980469 7.6171875 -0.1953125 C10 0 10 0 12 2 C14.32275177 2.40047444 16.65739357 2.7397104 19 3 C19 3.66 19 4.32 19 5 C16.03 5 13.06 5 10 5 C9.67 3.68 9.34 2.36 9 1 C6.36 1 3.72 1 1 1 C1 2.32 1 3.64 1 5 C-0.65 5 -2.3 5 -4 5 C-2.68 4.67 -1.36 4.34 0 4 C0 2.68 0 1.36 0 0 Z " fill="#3E5396" transform="translate(683,205)"/>
<path d="M0 0 C1.65 0 3.3 0 5 0 C5 1.32 5 2.64 5 4 C9.95 4 14.9 4 20 4 C20 4.33 20 4.66 20 5 C13.4 5 6.8 5 0 5 C0 3.35 0 1.7 0 0 Z " fill="#362822" transform="translate(573,344)"/>
<path d="M0 0 C1.65 0 3.3 0 5 0 C5 1.32 5 2.64 5 4 C6.65 4 8.3 4 10 4 C10 4.33 10 4.66 10 5 C6.7 5 3.4 5 0 5 C0 6.65 0 8.3 0 10 C-0.33 10 -0.66 10 -1 10 C-1 8.35 -1 6.7 -1 5 C-2.32 4.67 -3.64 4.34 -5 4 C-3.35 4 -1.7 4 0 4 C0 2.68 0 1.36 0 0 Z " fill="#2E201B" transform="translate(573,339)"/>
<path d="M0 0 C0 1.65 0 3.3 0 5 C-2.97 5 -5.94 5 -9 5 C-9 3.68 -9 2.36 -9 1 C-5.846632 0.29925156 -3.27275026 0 0 0 Z " fill="#644B49" transform="translate(375,315)"/>
<path d="M0 0 C1.32 0 2.64 0 4 0 C4 3.3 4 6.6 4 10 C2.68 10 1.36 10 0 10 C0 6.7 0 3.4 0 0 Z " fill="#010002" transform="translate(205,231)"/>
<path d="M0 0 C0.33 0 0.66 0 1 0 C1 3.3 1 6.6 1 10 C-0.98 10 -2.96 10 -5 10 C-5.33 8.35 -5.66 6.7 -6 5 C-9.96 5 -13.92 5 -18 5 C-18 4.67 -18 4.34 -18 4 C-13.71 4 -9.42 4 -5 4 C-4.67 5.32 -4.34 6.64 -4 8 C-2.68 8 -1.36 8 0 8 C0 5.36 0 2.72 0 0 Z " fill="#B58F5C" transform="translate(688,220)"/>
<path d="M0 0 C2.5 0.125 2.5 0.125 3.5 1.125 C3.54063832 2.79117115 3.542721 4.45888095 3.5 6.125 C1.19 6.125 -1.12 6.125 -3.5 6.125 C-3.542721 4.45888095 -3.54063832 2.79117115 -3.5 1.125 C-2.5 0.125 -2.5 0.125 0 0 Z " fill="#AD8342" transform="translate(699.5,217.875)"/>
<path d="M0 0 C3.3 0 6.6 0 10 0 C10 1.32 10 2.64 10 4 C6.7 4 3.4 4 0 4 C0 2.68 0 1.36 0 0 Z " fill="#6B4F43" transform="translate(273,149)"/>
<path d="M0 0 C3.96 0 7.92 0 12 0 C12 0.33 12 0.66 12 1 C8.37 1 4.74 1 1 1 C1 2.98 1 4.96 1 7 C-2.3 7 -5.6 7 -9 7 C-9 6.34 -9 5.68 -9 5 C-6.36 5 -3.72 5 -1 5 C-0.67 3.35 -0.34 1.7 0 0 Z " fill="#491311" transform="translate(250,83)"/>
<path d="M0 0 C0.66 0.33 1.32 0.66 2 1 C1.67 1.66 1.34 2.32 1 3 C0.85143812 7.53113746 0.89470676 11.57882704 2 16 C0.68 16 -0.64 16 -2 16 C-2.05402274 13.89611431 -2.09280256 11.79183286 -2.125 9.6875 C-2.14820312 8.51574219 -2.17140625 7.34398437 -2.1953125 6.13671875 C-2 3 -2 3 0 0 Z " fill="#434569" transform="translate(21,7)"/>
<path d="M0 0 C1.66611905 -0.042721 3.33382885 -0.04063832 5 0 C6 1 6 1 6.125 3.5 C6 6 6 6 5 7 C3.33382885 7.04063832 1.66611905 7.042721 0 7 C0 4.69 0 2.38 0 0 Z " fill="#7E7E7E" transform="translate(73,11)"/>
<path d="M0 0 C2.31 0 4.62 0 7 0 C7 1.98 7 3.96 7 6 C5.02 6 3.04 6 1 6 C0.67 4.02 0.34 2.04 0 0 Z " fill="#FD8D01" transform="translate(684,254)"/>
<path d="M0 0 C0.33 0 0.66 0 1 0 C1.33 1.65 1.66 3.3 2 5 C2.33 5 2.66 5 3 5 C3 6.65 3 8.3 3 10 C0.69 10 -1.62 10 -4 10 C-4 8.35 -4 6.7 -4 5 C-2.68 5 -1.36 5 0 5 C0 3.35 0 1.7 0 0 Z " fill="#61706E" transform="translate(693,214)"/>
<path d="M0 0 C1.32 0 2.64 0 4 0 C5.125 4.75 5.125 4.75 4 7 C2.35 6.67 0.7 6.34 -1 6 C-1.625 4.125 -1.625 4.125 -2 2 C-1.34 1.34 -0.68 0.68 0 0 Z " fill="#7A7A7A" transform="translate(51,11)"/>
<path d="M0 0 C2.97 0 5.94 0 9 0 C9 1.32 9 2.64 9 4 C6.03 4 3.06 4 0 4 C0 2.68 0 1.36 0 0 Z " fill="#040201" transform="translate(558,339)"/>
<path d="M0 0 C2.97 0 5.94 0 9 0 C9 1.32 9 2.64 9 4 C6.03 4 3.06 4 0 4 C0 2.68 0 1.36 0 0 Z " fill="#664B44" transform="translate(348,316)"/>
<path d="M0 0 C1.98 0 3.96 0 6 0 C6 1.98 6 3.96 6 6 C4.02 6 2.04 6 0 6 C0 4.02 0 2.04 0 0 Z " fill="#331E1B" transform="translate(242,252)"/>
<path d="M0 0 C1.65 0 3.3 0 5 0 C5 1.65 5 3.3 5 5 C6.98 5 8.96 5 11 5 C11 5.33 11 5.66 11 6 C7.37 6 3.74 6 0 6 C0 4.02 0 2.04 0 0 Z " fill="#F2A790" transform="translate(215,253)"/>
<path d="M0 0 C0.99 0 1.98 0 3 0 C3 2.64 3 5.28 3 8 C2.34 8 1.68 8 1 8 C1 10.97 1 13.94 1 17 C1.66 17.33 2.32 17.66 3 18 C2.01 18 1.02 18 0 18 C0 12.06 0 6.12 0 0 Z " fill="#040404" transform="translate(481,249)"/>
<path d="M0 0 C3.96 0 7.92 0 12 0 C12 0.99 12 1.98 12 3 C8.04 3 4.08 3 0 3 C0 2.01 0 1.02 0 0 Z " fill="#6F4730" transform="translate(680,248)"/>
<path d="M0 0 C1.66611905 -0.042721 3.33382885 -0.04063832 5 0 C6 1 6 1 6.0625 3.5625 C6.041875 4.366875 6.02125 5.17125 6 6 C4.02 6 2.04 6 0 6 C0 4.02 0 2.04 0 0 Z " fill="#F2E467" transform="translate(562,131)"/>
<path d="M0 0 C0.33 0.66 0.66 1.32 1 2 C4.96 2 8.92 2 13 2 C13.33 1.34 13.66 0.68 14 0 C14.33 1.32 14.66 2.64 15 4 C10.05 4 5.1 4 0 4 C0 2.68 0 1.36 0 0 Z " fill="#242425" transform="translate(334,202)"/>
<path d="M0 0 C1.32 0 2.64 0 4 0 C4 2.64 4 5.28 4 8 C2.68 8 1.36 8 0 8 C0 5.36 0 2.72 0 0 Z " fill="#030101" transform="translate(684,234)"/>
<path d="M0 0 C0 2.64 0 5.28 0 8 C-1.32 8 -2.64 8 -4 8 C-4.33 5.69 -4.66 3.38 -5 1 C-2 0 -2 0 0 0 Z " fill="#3B3C42" transform="translate(825,10)"/>
<path d="M0 0 C1.98 0 3.96 0 6 0 C6 1.65 6 3.3 6 5 C4.02 5 2.04 5 0 5 C0 3.35 0 1.7 0 0 Z " fill="#DB8A26" transform="translate(542,328)"/>
<path d="M0 0 C1.65 0 3.3 0 5 0 C5 1.98 5 3.96 5 6 C3.35 6 1.7 6 0 6 C0 4.02 0 2.04 0 0 Z " fill="#1A0C0B" transform="translate(221,252)"/>
<path d="M0 0 C1.65 0 3.3 0 5 0 C5 1.98 5 3.96 5 6 C3.35 6 1.7 6 0 6 C0 4.02 0 2.04 0 0 Z " fill="#020202" transform="translate(310,143)"/>
<path d="M0 0 C1.98 0 3.96 0 6 0 C6 1.65 6 3.3 6 5 C4.02 5 2.04 5 0 5 C0 3.35 0 1.7 0 0 Z " fill="#1B1414" transform="translate(589,121)"/>
<path d="M0 0 C1.65 0 3.3 0 5 0 C5 1.98 5 3.96 5 6 C3.35 6 1.7 6 0 6 C0 4.02 0 2.04 0 0 Z " fill="#E0DEDE" transform="translate(294,111)"/>
<path d="M0 0 C1.98 0 3.96 0 6 0 C6 1.65 6 3.3 6 5 C4.02 5 2.04 5 0 5 C0 3.35 0 1.7 0 0 Z " fill="#744137" transform="translate(288,106)"/>
<path d="M0 0 C1.98 0 3.96 0 6 0 C6 1.65 6 3.3 6 5 C4.35 5 2.7 5 1 5 C0.67 3.35 0.34 1.7 0 0 Z " fill="#DBC7A3" transform="translate(567,323)"/>
<path d="M0 0 C0.33 0.99 0.66 1.98 1 3 C1.99 3.33 2.98 3.66 4 4 C3.01 4 2.02 4 1 4 C1 6.64 1 9.28 1 12 C-2.96 12 -6.92 12 -11 12 C-11 11.67 -11 11.34 -11 11 C-7.37 11 -3.74 11 0 11 C0 8.69 0 6.38 0 4 C-0.99 3.67 -1.98 3.34 -3 3 C-2.01 3 -1.02 3 0 3 C0 2.01 0 1.02 0 0 Z " fill="#969697" transform="translate(360,171)"/>
<path d="M0 0 C0.25 2.3125 0.25 2.3125 0 5 C-1.75 6.875 -1.75 6.875 -4 8 C-6.140625 7.5703125 -6.140625 7.5703125 -8 7 C-6.8572081 5.83035398 -5.71068285 4.66435444 -4.5625 3.5 C-3.92441406 2.8503125 -3.28632813 2.200625 -2.62890625 1.53125 C-1 0 -1 0 0 0 Z " fill="#0F1023" transform="translate(35,13)"/>
<path d="M0 0 C1.65 0 3.3 0 5 0 C5 2.97 5 5.94 5 9 C4.34 9 3.68 9 3 9 C2.67 7.02 2.34 5.04 2 3 C1.34 3.66 0.68 4.32 0 5 C0 3.35 0 1.7 0 0 Z " fill="#FCF0F0" transform="translate(595,105)"/>
<path d="M0 0 C3.63 0 7.26 0 11 0 C10.34 1.32 9.68 2.64 9 4 C9 3.34 9 2.68 9 2 C6.36 2 3.72 2 1 2 C0.67 2.66 0.34 3.32 0 4 C0 2.68 0 1.36 0 0 Z " fill="#242324" transform="translate(338,179)"/>
<path d="M0 0 C1.65 0 3.3 0 5 0 C5 1.65 5 3.3 5 5 C3.35 5 1.7 5 0 5 C0 3.35 0 1.7 0 0 Z " fill="#0D0807" transform="translate(573,323)"/>
<path d="M0 0 C1.65 0 3.3 0 5 0 C5 1.65 5 3.3 5 5 C3.35 5 1.7 5 0 5 C0 3.35 0 1.7 0 0 Z " fill="#120C0A" transform="translate(558,323)"/>
<path d="M0 0 C1.65 0 3.3 0 5 0 C5 1.65 5 3.3 5 5 C3.35 5 1.7 5 0 5 C0 3.35 0 1.7 0 0 Z " fill="#ECD5AD" transform="translate(552,323)"/>
<path d="M0 0 C1.65 0 3.3 0 5 0 C5 1.65 5 3.3 5 5 C3.35 5 1.7 5 0 5 C0 3.35 0 1.7 0 0 Z " fill="#301501" transform="translate(679,257)"/>
<path d="M0 0 C1.65 0 3.3 0 5 0 C4.67 1.98 4.34 3.96 4 6 C2.68 6 1.36 6 0 6 C0 4.02 0 2.04 0 0 Z " fill="#F79E84" transform="translate(237,252)"/>
<path d="M0 0 C1.65 0 3.3 0 5 0 C5 1.65 5 3.3 5 5 C3.35 5 1.7 5 0 5 C0 3.35 0 1.7 0 0 Z " fill="#5A3499" transform="translate(205,242)"/>
<path d="M0 0 C1.65 0 3.3 0 5 0 C5 1.65 5 3.3 5 5 C3.35 5 1.7 5 0 5 C0 3.35 0 1.7 0 0 Z " fill="#030204" transform="translate(199,242)"/>
<path d="M0 0 C1.65 0 3.3 0 5 0 C5 1.65 5 3.3 5 5 C3.35 5 1.7 5 0 5 C0 3.35 0 1.7 0 0 Z " fill="#1C1C1C" transform="translate(693,229)"/>
<path d="M0 0 C1.65 0 3.3 0 5 0 C5 1.65 5 3.3 5 5 C3.35 5 1.7 5 0 5 C0 3.35 0 1.7 0 0 Z " fill="#181818" transform="translate(674,229)"/>
<path d="M0 0 C1.65 0 3.3 0 5 0 C5 4.29 5 8.58 5 13 C4.67 13 4.34 13 4 13 C3.67 9.7 3.34 6.4 3 3 C2.01 3.33 1.02 3.66 0 4 C0 2.68 0 1.36 0 0 Z " fill="#38438A" transform="translate(707,201)"/>
<path d="M0 0 C1.65 0 3.3 0 5 0 C5 1.65 5 3.3 5 5 C3.35 5 1.7 5 0 5 C0 3.35 0 1.7 0 0 Z " fill="#3D4692" transform="translate(262,170)"/>
<path d="M0 0 C1.65 0 3.3 0 5 0 C5 1.65 5 3.3 5 5 C3.35 5 1.7 5 0 5 C0 3.35 0 1.7 0 0 Z " fill="#3E4895" transform="translate(283,170)"/>
<path d="M0 0 C1.65 0 3.3 0 5 0 C5 1.65 5 3.3 5 5 C3.35 5 1.7 5 0 5 C0 3.35 0 1.7 0 0 Z " fill="#41478E" transform="translate(278,164)"/>
<path d="M0 0 C1.65 0 3.3 0 5 0 C5 1.65 5 3.3 5 5 C3.35 5 1.7 5 0 5 C0 3.35 0 1.7 0 0 Z " fill="#E38E22" transform="translate(283,143)"/>
<path d="M0 0 C1.65 0 3.3 0 5 0 C5 1.65 5 3.3 5 5 C3.35 5 1.7 5 0 5 C0 3.35 0 1.7 0 0 Z " fill="#0F0D0C" transform="translate(584,132)"/>
<path d="M0 0 C1.65 0 3.3 0 5 0 C5 1.65 5 3.3 5 5 C3.35 5 1.7 5 0 5 C0 3.35 0 1.7 0 0 Z " fill="#0A0604" transform="translate(278,132)"/>
<path d="M0 0 C1.65 0 3.3 0 5 0 C5 1.65 5 3.3 5 5 C3.35 5 1.7 5 0 5 C0 3.35 0 1.7 0 0 Z " fill="#3D468E" transform="translate(251,127)"/>
<path d="M0 0 C1.65 0 3.3 0 5 0 C5 1.65 5 3.3 5 5 C3.35 5 1.7 5 0 5 C0 3.35 0 1.7 0 0 Z " fill="#959595" transform="translate(321,127)"/>
<path d="M0 0 C1.65 0 3.3 0 5 0 C5 1.65 5 3.3 5 5 C3.35 5 1.7 5 0 5 C0 3.35 0 1.7 0 0 Z " fill="#0F0B0B" transform="translate(573,121)"/>
<path d="M0 0 C1.65 0 3.3 0 5 0 C5 1.65 5 3.3 5 5 C3.35 5 1.7 5 0 5 C0 3.35 0 1.7 0 0 Z " fill="#F9F0EF" transform="translate(273,111)"/>
<path d="M0 0 C1.65 0 3.3 0 5 0 C5 1.65 5 3.3 5 5 C3.35 5 1.7 5 0 5 C0 3.35 0 1.7 0 0 Z " fill="#C6D553" transform="translate(557,99)"/>
<path d="M0 0 C1.65 0 3.3 0 5 0 C5 1.65 5 3.3 5 5 C3.35 5 1.7 5 0 5 C0 3.35 0 1.7 0 0 Z " fill="#CBDB54" transform="translate(606,99)"/>
<path d="M0 0 C1.98 0.495 1.98 0.495 4 1 C3.67 2.65 3.34 4.3 3 6 C1.68 5.67 0.36 5.34 -1 5 C-0.67 3.35 -0.34 1.7 0 0 Z " fill="#3C3E43" transform="translate(890,12)"/>
<path d="M0 0 C1.32 0 2.64 0 4 0 C4 1.98 4 3.96 4 6 C2.68 6 1.36 6 0 6 C0 4.02 0 2.04 0 0 Z " fill="#151010" transform="translate(247,111)"/>
<path d="M0 0 C0.99 0.33 1.98 0.66 3 1 C2.67 2.65 2.34 4.3 2 6 C0.68 5.67 -0.64 5.34 -2 5 C-1.125 1.125 -1.125 1.125 0 0 Z " fill="#41444A" transform="translate(836,12)"/>
<path d="M0 0 C0.99 0 1.98 0 3 0 C4.125 3.75 4.125 3.75 3 6 C1.68 5.67 0.36 5.34 -1 5 C-0.67 3.35 -0.34 1.7 0 0 Z " fill="#3C3E44" transform="translate(785,12)"/>
<path d="M0 0 C0.99 0.33 1.98 0.66 3 1 C3 1.99 3 2.98 3 4 C3.66 4 4.32 4 5 4 C4.67 4.99 4.34 5.98 4 7 C2.68 7 1.36 7 0 7 C0 4.69 0 2.38 0 0 Z " fill="#484B51" transform="translate(815,11)"/>
<path d="M0 0 C0.99 0 1.98 0 3 0 C3.36923077 4.55384615 3.36923077 4.55384615 1.5 6.8125 C1.005 7.204375 0.51 7.59625 0 8 C0 6.35 0 4.7 0 3 C-1.65 3 -3.3 3 -5 3 C-5 2.67 -5 2.34 -5 2 C-3.35 2 -1.7 2 0 2 C0 1.34 0 0.68 0 0 Z " fill="#898A8A" transform="translate(679,226)"/>
<path d="M0 0 C0.99 0.33 1.98 0.66 3 1 C3 2.65 3 4.3 3 6 C1.68 5.67 0.36 5.34 -1 5 C-0.67 3.35 -0.34 1.7 0 0 Z " fill="#42454B" transform="translate(796,12)"/>
<path d="M0 0 C1.65 0 3.3 0 5 0 C5 1.32 5 2.64 5 4 C3.35 4 1.7 4 0 4 C0 2.68 0 1.36 0 0 Z " fill="#050201" transform="translate(338,367)"/>
<path d="M0 0 C1.65 0 3.3 0 5 0 C5 1.32 5 2.64 5 4 C3.35 4 1.7 4 0 4 C0 2.68 0 1.36 0 0 Z " fill="#6B5046" transform="translate(573,344)"/>
<path d="M0 0 C1.65 0 3.3 0 5 0 C5 1.32 5 2.64 5 4 C3.35 4 1.7 4 0 4 C0 2.68 0 1.36 0 0 Z " fill="#050201" transform="translate(573,339)"/>
<path d="M0 0 C1.32 0 2.64 0 4 0 C4 1.65 4 3.3 4 5 C2.68 5 1.36 5 0 5 C0 3.35 0 1.7 0 0 Z " fill="#070302" transform="translate(348,334)"/>
<path d="M0 0 C1.32 0 2.64 0 4 0 C4 1.65 4 3.3 4 5 C2.68 5 1.36 5 0 5 C0 3.35 0 1.7 0 0 Z " fill="#B62951" transform="translate(334,334)"/>
<path d="M0 0 C1.65 0 3.3 0 5 0 C5 1.32 5 2.64 5 4 C3.35 4 1.7 4 0 4 C0 2.68 0 1.36 0 0 Z " fill="#37439B" transform="translate(352,311)"/>
<path d="M0 0 C1.65 0 3.3 0 5 0 C5 1.32 5 2.64 5 4 C3.35 4 1.7 4 0 4 C0 2.68 0 1.36 0 0 Z " fill="#354199" transform="translate(361,311)"/>
<path d="M0 0 C1.65 0 3.3 0 5 0 C5 1.32 5 2.64 5 4 C3.35 4 1.7 4 0 4 C0 2.68 0 1.36 0 0 Z " fill="#3E499B" transform="translate(257,165)"/>
<path d="M0 0 C1.65 0 3.3 0 5 0 C5 1.32 5 2.64 5 4 C3.35 4 1.7 4 0 4 C0 2.68 0 1.36 0 0 Z " fill="#989898" transform="translate(310,133)"/>
<path d="M0 0 C0.99 0.33 1.98 0.66 3 1 C2.67 2.65 2.34 4.3 2 6 C1.01 6 0.02 6 -1 6 C-1.042721 4.33388095 -1.04063832 2.66617115 -1 1 C-0.67 0.67 -0.34 0.34 0 0 Z " fill="#44474D" transform="translate(775,12)"/>
</svg>
